<svg width="399" height="399" viewBox="0 0 399 399" fill="none" xmlns="http://www.w3.org/2000/svg">
<path d="M73.9244 253.081L62.0877 253.304L56.0907 253.393C54.0877 253.431 52.0752 253.424 50.0666 253.437L49.7123 253.44L49.7107 253.081L49.6676 243L49.666 242.6L50.0666 242.601L61.9951 242.651C65.9716 242.655 69.9472 242.741 73.9236 242.782L74.1431 242.785L74.1415 243C74.1263 244.707 74.0728 246.406 74.0369 248.087L73.9244 253.081ZM73.9244 253.081L73.8111 247.994C73.7752 246.316 73.7217 244.654 73.7066 243L73.9244 243.218C69.948 243.259 65.9724 243.345 61.9959 243.349L50.0674 243.399L50.4656 243.001L50.4225 253.082L50.0666 252.726C52.0345 252.741 53.9984 252.733 55.9718 252.77L61.9033 252.859L73.9244 253.081Z" fill="#EBEBEB"/>
<path d="M60.6153 265.794L48.7786 266.017L42.7816 266.106C40.7787 266.144 38.7661 266.137 36.7575 266.15L36.4032 266.153L36.4016 265.794L36.3585 255.713L36.3569 255.312L36.7575 255.314L48.686 255.364C52.6625 255.368 56.6381 255.454 60.6145 255.495L60.834 255.498L60.8324 255.713C60.8172 257.42 60.7638 259.119 60.7279 260.8L60.6153 265.794ZM60.6153 265.794L60.502 260.707C60.4661 259.028 60.4126 257.367 60.3975 255.713L60.6153 255.931C56.6389 255.972 52.6633 256.058 48.6868 256.062L36.7583 256.112L37.1565 255.714L37.1134 265.795L36.7575 265.439C38.7254 265.453 40.6893 265.445 42.6627 265.483L48.5943 265.572L60.6153 265.794Z" fill="#EBEBEB"/>
<path d="M60.6153 47.6517L48.7786 47.8743L42.7816 47.9637C40.7787 48.0012 38.7661 47.9932 36.7575 48.0076L36.4032 48.01L36.4016 47.6517L36.3585 37.5705L36.3569 37.1699L36.7575 37.1715L48.686 37.2218C52.6625 37.2258 56.6381 37.3112 60.6145 37.3527L60.834 37.3551L60.8324 37.5705C60.8172 39.2774 60.7638 40.9764 60.7279 42.6578L60.6153 47.6517ZM60.6153 47.6517L60.502 42.5644C60.4661 40.8862 60.4126 39.224 60.3975 37.5705L60.6153 37.7884C56.6389 37.8291 52.6633 37.9153 48.6868 37.9192L36.7583 37.9687L37.1565 37.5705L37.1134 47.6517L36.7575 47.2957C38.7254 47.3101 40.6893 47.3021 42.6627 47.3396L48.5943 47.429L60.6153 47.6517Z" fill="#EBEBEB"/>
<path d="M362.242 47.6517L350.405 47.8743L344.408 47.9637C342.405 48.0012 340.393 47.9932 338.384 48.0076L338.03 48.01L338.028 47.6517L337.985 37.5705L337.983 37.1699L338.384 37.1715L350.313 37.2218C354.289 37.2258 358.265 37.3112 362.241 37.3527L362.46 37.3551L362.459 37.5705C362.444 39.2774 362.39 40.9764 362.354 42.6578L362.242 47.6517ZM362.242 47.6517L362.128 42.5644C362.093 40.8862 362.039 39.224 362.024 37.5705L362.242 37.7884C358.265 37.8291 354.289 37.9153 350.313 37.9192L338.385 37.9695L338.783 37.5713L338.74 47.6525L338.384 47.2965C340.352 47.3109 342.316 47.3029 344.289 47.3404L350.221 47.4298L362.242 47.6517Z" fill="#EBEBEB"/>
<path d="M348.934 60.3645L337.097 60.5872L331.1 60.6766C329.097 60.7141 327.084 60.7061 325.076 60.7204L324.722 60.7228L324.72 60.3645L324.677 50.2834L324.675 49.8828L325.076 49.8844L337.004 49.9347C340.981 49.9387 344.956 50.0241 348.933 50.0656L349.152 50.068L349.151 50.2834C349.136 51.9903 349.082 53.6893 349.046 55.3707L348.934 60.3645ZM348.934 60.3645L348.82 55.2773C348.784 53.5991 348.731 51.9369 348.716 50.2834L348.934 50.5013C344.957 50.542 340.982 50.6281 337.005 50.6321L325.077 50.6824L325.475 50.2842L325.432 60.3653L325.076 60.0094C327.044 60.0238 329.008 60.0158 330.981 60.0533L336.913 60.1427L348.934 60.3645Z" fill="#EBEBEB"/>
<path d="M287.832 178.302L275.995 178.525L269.998 178.614C267.995 178.652 265.983 178.644 263.974 178.658L263.62 178.66L263.618 178.302L263.575 168.221L263.574 167.82L263.974 167.822L275.903 167.872C279.879 167.876 283.855 167.962 287.831 168.003L288.051 168.005L288.049 168.221C288.034 169.928 287.981 171.627 287.945 173.308L287.832 178.302ZM287.832 178.302L287.719 173.215C287.683 171.536 287.629 169.874 287.614 168.221L287.832 168.439C283.856 168.479 279.879 168.566 275.904 168.57L263.975 168.62L264.373 168.222L264.33 178.303L263.974 177.948C265.942 177.961 267.906 177.954 269.88 177.992L275.811 178.081L287.832 178.302Z" fill="#EBEBEB"/>
<path d="M274.523 191.015L262.686 191.238L256.689 191.327C254.686 191.364 252.674 191.356 250.665 191.371L250.311 191.373L250.309 191.015L250.266 180.934L250.265 180.533L250.665 180.535L262.594 180.585C266.57 180.589 270.546 180.675 274.522 180.716L274.742 180.718L274.74 180.934C274.725 182.641 274.671 184.34 274.636 186.021L274.523 191.015ZM274.523 191.015L274.41 185.928C274.374 184.249 274.32 182.587 274.305 180.934L274.523 181.152C270.547 181.192 266.571 181.279 262.595 181.283L250.666 181.333L251.064 180.935L251.021 191.016L250.665 190.66C252.633 190.674 254.597 190.666 256.57 190.704L262.502 190.793L274.523 191.015Z" fill="#EBEBEB"/>
<path d="M261.268 178.302L249.431 178.525L243.434 178.614C241.431 178.652 239.418 178.644 237.41 178.658L237.056 178.66L237.054 178.302L237.011 168.221L237.009 167.82L237.41 167.822L249.338 167.872C253.315 167.876 257.29 167.962 261.267 168.003L261.486 168.005L261.485 168.221C261.47 169.928 261.416 171.627 261.38 173.308L261.268 178.302ZM261.268 178.302L261.154 173.215C261.118 171.536 261.065 169.874 261.05 168.221L261.268 168.439C257.291 168.479 253.315 168.566 249.339 168.57L237.411 168.62L237.809 168.222L237.766 178.303L237.41 177.948C239.378 177.961 241.342 177.954 243.315 177.992L249.247 178.081L261.268 178.302Z" fill="#EBEBEB"/>
<path d="M362.242 265.794L350.405 266.017L344.408 266.106C342.405 266.144 340.393 266.137 338.384 266.15L338.03 266.153L338.028 265.794L337.985 255.713L337.983 255.312L338.384 255.314L350.313 255.364C354.289 255.368 358.265 255.454 362.241 255.495L362.46 255.498L362.459 255.713C362.444 257.42 362.39 259.119 362.354 260.8L362.242 265.794ZM362.242 265.794L362.128 260.707C362.093 259.028 362.039 257.367 362.024 255.713L362.242 255.931C358.265 255.972 354.29 256.058 350.313 256.062L338.385 256.112L338.783 255.714L338.74 265.795L338.384 265.439C340.352 265.453 342.316 265.445 344.289 265.483L350.221 265.572L362.242 265.794Z" fill="#EBEBEB"/>
<path d="M159.541 77.6302L147.704 77.8528L141.707 77.9422C139.704 77.9797 137.692 77.9717 135.683 77.9861L135.329 77.9885L135.327 77.6302L135.284 67.549L135.283 67.1484L135.683 67.15L147.612 67.2003C151.588 67.2043 155.564 67.2897 159.54 67.3312L159.76 67.3336L159.758 67.549C159.743 69.256 159.69 70.9549 159.654 72.6363L159.541 77.6302ZM159.541 77.6302L159.428 72.5429C159.392 70.8647 159.338 69.2025 159.323 67.549L159.541 67.7669C155.565 67.8076 151.589 67.8938 147.613 67.8978L135.684 67.948L136.082 67.5498L136.039 77.631L135.683 77.2751C137.651 77.2894 139.615 77.2814 141.589 77.3189L147.52 77.4083L159.541 77.6302Z" fill="#EBEBEB"/>
<path d="M337.733 144.414L342.431 136.84L340.111 135.404C339.429 134.981 339.06 134.21 339.128 133.411C339.166 132.969 339.18 132.524 339.171 132.078C339.153 131.278 339.571 130.533 340.277 130.155L342.681 128.865L338.468 121.009L336.064 122.298C335.359 122.677 334.507 122.613 333.85 122.156C333.484 121.901 333.106 121.666 332.717 121.453C332.013 121.068 331.575 120.333 331.601 119.532L331.687 116.804L322.779 116.527L322.697 119.264C322.673 120.067 322.18 120.766 321.454 121.109C321.257 121.202 321.062 121.3 320.869 121.404C320.675 121.508 320.485 121.616 320.299 121.729C319.615 122.142 318.765 122.166 318.086 121.745L315.749 120.298L311.052 127.872L313.375 129.314C314.057 129.737 314.426 130.509 314.357 131.309C314.319 131.748 314.304 132.192 314.313 132.636C314.33 133.435 313.912 134.179 313.207 134.557L310.802 135.846L315.015 143.702L317.42 142.413C318.125 142.035 318.976 142.098 319.632 142.554C319.997 142.807 320.375 143.04 320.762 143.252C321.467 143.636 321.906 144.371 321.881 145.173L321.797 147.907L330.705 148.184L330.791 145.449C330.816 144.65 331.306 143.954 332.029 143.611C332.227 143.518 332.424 143.418 332.62 143.314C332.813 143.21 333.004 143.102 333.19 142.989C333.878 142.574 334.731 142.55 335.414 142.974L337.733 144.414ZM330.192 138.79C326.639 140.696 322.218 139.361 320.312 135.808C318.407 132.255 319.738 127.828 323.291 125.922C326.844 124.017 331.274 125.354 333.18 128.907C335.085 132.46 333.744 136.885 330.192 138.79Z" fill="#EBEBEB"/>
<path d="M81.0211 230.231L85.7189 222.658L83.3991 221.22C82.7168 220.797 82.3473 220.027 82.416 219.227C82.4543 218.785 82.4678 218.34 82.4583 217.894C82.4407 217.094 82.8589 216.349 83.5643 215.971L85.9687 214.682L81.7552 206.825L79.3516 208.115C78.6462 208.493 77.7947 208.429 77.138 207.972C76.7717 207.717 76.3935 207.483 76.0048 207.27C75.301 206.884 74.8629 206.149 74.8884 205.348L74.9746 202.621L66.0665 202.344L65.9843 205.081C65.9604 205.884 65.468 206.582 64.7419 206.925C64.5448 207.018 64.3492 207.117 64.1561 207.22C63.9622 207.324 63.7723 207.433 63.5864 207.545C62.9025 207.958 62.0526 207.982 61.3735 207.562L59.037 206.114L54.3391 213.688L56.6629 215.13C57.3444 215.554 57.7139 216.326 57.6444 217.125C57.6061 217.566 57.5918 218.008 57.6006 218.452C57.6173 219.251 57.1992 219.996 56.4945 220.373L54.0894 221.663L58.3028 229.519L60.708 228.229C61.4126 227.851 62.2633 227.915 62.92 228.371C63.2847 228.623 63.6622 228.857 64.05 229.068C64.7546 229.453 65.1935 230.188 65.1688 230.99L65.085 233.723L73.9931 234L74.0785 231.266C74.1032 230.466 74.594 229.77 75.317 229.429C75.5149 229.335 75.712 229.236 75.9075 229.131C76.1014 229.027 76.2913 228.919 76.478 228.806C77.1659 228.391 78.019 228.367 78.7021 228.791L81.0211 230.231ZM73.4784 224.607C69.9257 226.513 65.5047 225.178 63.5991 221.625C61.6935 218.072 63.0246 213.645 66.5781 211.739C70.1308 209.834 74.5612 211.171 76.4669 214.724C78.3725 218.277 77.0311 222.702 73.4784 224.607Z" fill="#EBEBEB"/>
<path d="M172.263 85.1765L169.142 79.7684L167.487 80.7244C167.001 81.0061 166.402 80.979 165.931 80.6717C165.671 80.5018 165.401 80.3462 165.123 80.2041C164.623 79.9504 164.302 79.4452 164.302 78.885V76.9746H158.057V78.8858C158.057 79.446 157.735 79.9512 157.235 80.2049C156.957 80.3462 156.687 80.5026 156.427 80.6725C155.956 80.979 155.358 81.0069 154.871 80.7252L153.216 79.7692L150.096 85.1773L151.758 86.1341C152.246 86.415 152.514 86.9496 152.485 87.5114C152.477 87.6638 152.473 87.817 152.473 87.971C152.473 88.1251 152.477 88.2783 152.485 88.4307C152.514 88.9901 152.247 89.5224 151.763 89.8025L150.096 90.7656L153.216 96.1737L154.876 95.2169C155.363 94.936 155.962 94.9639 156.433 95.2712C156.692 95.4403 156.96 95.5959 157.238 95.7372C157.737 95.9917 158.057 96.4961 158.057 97.0563V98.9683H164.303V97.0563C164.303 96.4961 164.623 95.9917 165.122 95.7372C165.399 95.5959 165.668 95.4403 165.926 95.2712C166.397 94.9639 166.997 94.936 167.483 95.2169L169.143 96.1737L172.263 90.7656L170.604 89.808C170.118 89.5279 169.851 88.9949 169.879 88.4347C169.887 88.2815 169.89 88.1275 169.89 87.9718C169.89 87.8178 169.886 87.6646 169.879 87.5122C169.85 86.9504 170.118 86.415 170.606 86.1341L172.263 85.1765ZM166.294 87.971C166.294 90.7952 164.006 93.083 161.182 93.083C158.357 93.083 156.065 90.7952 156.065 87.971C156.065 85.1469 158.357 82.8543 161.182 82.8543C164.006 82.8543 166.294 85.1469 166.294 87.971Z" fill="#EBEBEB"/>
<path d="M70.89 242.463C60.461 252.673 58.7109 268.468 60.9086 282.303C60.9653 282.616 61.4513 282.531 61.4513 282.237C61.4513 279.087 61.3563 275.966 61.3659 272.854C61.4225 272.712 61.4704 272.578 61.5279 272.436C64.2491 270.456 66.7516 268.221 68.3029 265.156C70.0441 261.731 70.7288 257.867 72.0615 254.29C72.1852 253.947 71.8197 254.048 71.5811 254.224C65.2378 258.902 63.2156 263.938 61.3954 270.666C61.4808 267.174 61.7473 263.681 62.499 260.189C63.8692 253.805 66.5808 247.477 71.1677 242.739C71.3377 242.558 71.0712 242.282 70.89 242.463Z" fill="#263238"/>
<path d="M72.8498 243.653C74.6437 243.714 75.7689 246.581 77.167 247.418C77.9067 247.864 78.6273 247.836 79.1468 247.107C80.5321 245.174 78.6313 242.788 76.8438 241.453C78.1222 241.979 79.1827 242.902 80.5609 243.164C81.3956 243.317 82.0443 243.008 82.2391 242.16C82.8463 239.523 79.5394 238.35 77.2707 238.295C78.3704 237.53 81.5232 235.452 79.8482 234.429C78.1509 233.403 74.4514 236.376 73.2448 237.354C71.4716 238.793 69.3561 240.943 69.2763 243.194C69.1726 245.822 71.4692 244.205 72.8498 243.653Z" fill="#D0D0D0"/>
<path opacity="0.8" d="M72.8498 243.653C74.6437 243.714 75.7689 246.581 77.167 247.418C77.9067 247.864 78.6273 247.836 79.1468 247.107C80.5321 245.174 78.6313 242.788 76.8438 241.453C78.1222 241.979 79.1827 242.902 80.5609 243.164C81.3956 243.317 82.0443 243.008 82.2391 242.16C82.8463 239.523 79.5394 238.35 77.2707 238.295C78.3704 237.53 81.5232 235.452 79.8482 234.429C78.1509 233.403 74.4514 236.376 73.2448 237.354C71.4716 238.793 69.3561 240.943 69.2763 243.194C69.1726 245.822 71.4692 244.205 72.8498 243.653Z" fill="#053365"/>
<path d="M72.3311 244.097C74.6254 243.054 79.0311 244.555 79.4062 243.687C80.1659 241.92 76.6443 240.707 74.7435 240.472C76.4943 239.998 79.8483 239.242 79.7453 237.554C79.6193 235.493 74.6006 237.265 72.0606 239.213C68.8606 241.667 68.8814 244.034 69.4104 244.508C70.1358 245.16 71.9521 244.269 72.3311 244.097Z" fill="#249FFF"/>
<path d="M47.14 241.452C57.9489 251.258 60.2998 266.975 58.6296 280.884C58.5849 281.2 58.0966 281.133 58.0854 280.839C57.9657 277.691 57.9418 274.569 57.8141 271.46C57.7518 271.32 57.6992 271.189 57.6361 271.048C54.8415 269.173 52.256 267.035 50.5898 264.032C48.7193 260.676 47.8878 256.841 46.421 253.316C46.2846 252.979 46.6532 253.065 46.899 253.233C53.4155 257.666 55.6284 262.621 57.7032 269.274C57.4845 265.788 57.0855 262.308 56.2021 258.847C54.5902 252.519 51.64 246.3 46.8767 241.739C46.6971 241.565 46.9525 241.279 47.14 241.452Z" fill="#263238"/>
<path d="M45.2273 242.717C43.4366 242.845 42.4224 245.754 41.057 246.643C40.3348 247.116 39.6142 247.116 39.0668 246.408C37.6088 244.527 39.4171 242.071 41.1528 240.67C39.8951 241.244 38.8705 242.207 37.5035 242.521C36.6752 242.706 36.0152 242.422 35.7878 241.581C35.0808 238.969 38.3406 237.672 40.6053 237.531C39.477 236.808 36.2475 234.851 37.8826 233.766C39.5392 232.676 43.3497 235.504 44.5921 236.437C46.4188 237.808 48.6141 239.876 48.78 242.122C48.9835 244.743 46.6278 243.215 45.2273 242.717Z" fill="#D0D0D0"/>
<path opacity="0.8" d="M45.2273 242.717C43.4366 242.845 42.4224 245.754 41.057 246.643C40.3348 247.116 39.6142 247.116 39.0668 246.408C37.6088 244.527 39.4171 242.071 41.1528 240.67C39.8951 241.244 38.8705 242.207 37.5035 242.521C36.6752 242.706 36.0152 242.422 35.7878 241.581C35.0808 238.969 38.3406 237.672 40.6053 237.531C39.477 236.808 36.2475 234.851 37.8826 233.766C39.5392 232.676 43.3497 235.504 44.5921 236.437C46.4188 237.808 48.6141 239.876 48.78 242.122C48.9835 244.743 46.6278 243.215 45.2273 242.717Z" fill="#053365"/>
<path d="M45.7629 243.14C43.4312 242.184 39.0845 243.852 38.6775 242.999C37.8516 241.262 41.3237 239.917 43.2141 239.61C41.4465 239.203 38.0662 238.576 38.1053 236.885C38.1524 234.82 43.2349 236.4 45.8475 238.25C49.1385 240.58 49.2079 242.947 48.6972 243.441C47.9965 244.119 46.1476 243.298 45.7629 243.14Z" fill="#249FFF"/>
<path d="M58.1943 267.351C58.9923 272.519 59.9818 277.862 61.5507 282.855C61.7007 283.31 62.3758 283.194 62.3064 282.703C61.5962 277.925 60.3018 273.235 59.5924 268.458C58.871 263.623 58.4856 258.722 58.7625 253.833C59.2173 245.782 61.4038 237.218 66.6579 230.917C66.7736 230.768 66.5286 230.557 66.4097 230.696C55.8913 242.959 57.5647 257.996 57.5742 259.344C56.0852 254.266 54.5506 248.447 48.9183 243.277C48.6757 243.053 48.4858 243.16 48.5265 243.539C49.5336 252.956 52.1518 257.872 57.6117 262.907C57.765 264.399 57.9573 265.884 58.1943 267.351Z" fill="#249FFF"/>
<path d="M66.7515 232.327C68.6435 231.486 71.2538 233.896 73.1259 234.06C74.117 234.149 74.8512 233.758 75.0235 232.741C75.488 230.036 72.3143 228.519 69.7879 228.033C71.3791 227.935 72.9439 228.36 74.5056 227.938C75.4489 227.676 75.966 227.029 75.7417 226.05C75.0443 223.008 71.0232 223.456 68.6411 224.541C69.3976 223.194 71.6217 219.45 69.3697 219.233C67.0922 219.022 64.7501 223.968 63.9904 225.592C62.8748 227.978 61.7624 231.273 62.8125 233.648C64.0279 236.427 65.5968 233.593 66.7515 232.327Z" fill="#D0D0D0"/>
<path opacity="0.8" d="M66.7515 232.327C68.6435 231.486 71.2538 233.896 73.1259 234.06C74.117 234.149 74.8512 233.758 75.0235 232.741C75.488 230.036 72.3143 228.519 69.7879 228.033C71.3791 227.935 72.9439 228.36 74.5056 227.938C75.4489 227.676 75.966 227.029 75.7417 226.05C75.0443 223.008 71.0232 223.456 68.6411 224.541C69.3976 223.194 71.6217 219.45 69.3697 219.233C67.0922 219.022 64.7501 223.968 63.9904 225.592C62.8748 227.978 61.7624 231.273 62.8125 233.648C64.0279 236.427 65.5968 233.593 66.7515 232.327Z" fill="#053365"/>
<path d="M66.4352 233.047C68.2906 230.81 73.618 230.149 73.5694 229.06C73.468 226.845 69.2043 227.359 67.1135 228.072C68.6912 226.699 71.7906 224.227 70.8338 222.527C69.6655 220.451 65.3508 224.817 63.6957 228.117C61.6105 232.274 62.8235 234.719 63.6119 234.945C64.6932 235.254 66.1296 233.416 66.4352 233.047Z" fill="#249FFF"/>
<path d="M51.274 270.185L46.6353 305.629H74.8637C74.282 302.488 69.0279 270.145 69.0279 270.145L51.274 270.185Z" fill="#249FFF"/>
<path opacity="0.2" d="M34.6123 305.748L75.8338 305.554L117.056 305.484L199.5 305.35L281.944 305.483L323.165 305.553L364.387 305.748L323.165 305.943L281.944 306.014L199.5 306.146L117.056 306.013L75.8338 305.942L34.6123 305.748Z" fill="#263238"/>
<path d="M199.5 375.151C265.193 375.151 318.448 367.622 318.448 358.333C318.448 349.045 265.193 341.516 199.5 341.516C133.807 341.516 80.5527 349.045 80.5527 358.333C80.5527 367.622 133.807 375.151 199.5 375.151Z" fill="#EBEBEB"/>
<path d="M125.743 181.682L120.789 162.187L81.6562 172.132L76.4844 151.783L107.756 80.5124L123.267 76.5703L138.348 135.909L150.87 132.726L156.078 153.217L143.555 156.4L148.51 175.895L125.743 181.682ZM98.9321 145.927L118.285 141.009L111.884 115.822L98.9321 145.927Z" fill="#053365"/>
<path d="M237.821 116.602C237.821 123.063 236.841 129.009 234.884 134.442C232.925 139.875 230.233 144.572 226.808 148.537C223.38 152.501 219.343 155.585 214.696 157.786C210.045 159.989 204.979 161.09 199.498 161.09C194.015 161.09 188.927 159.989 184.229 157.786C179.53 155.584 175.468 152.501 172.042 148.537C168.615 144.572 165.949 139.875 164.041 134.442C162.132 129.009 161.178 123.063 161.178 116.602C161.178 110.143 162.132 104.196 164.041 98.764C165.95 93.3312 168.615 88.6334 172.042 84.6689C175.468 80.7045 179.53 77.5986 184.229 75.3459C188.927 73.0955 194.015 71.9688 199.498 71.9688C204.979 71.9688 210.044 73.0955 214.696 75.3459C219.343 77.5986 223.38 80.7045 226.808 84.6689C230.233 88.6334 232.925 93.3312 234.884 98.764C236.841 104.196 237.821 110.143 237.821 116.602ZM214.182 116.602C214.182 109.752 212.81 104.196 210.07 99.9379C207.328 95.6805 203.806 93.5515 199.499 93.5515C194.996 93.5515 191.399 95.6805 188.708 99.9379C186.015 104.196 184.67 109.752 184.67 116.602C184.67 123.455 186.015 128.987 188.708 133.194C191.399 137.403 194.996 139.507 199.499 139.507C203.806 139.507 207.328 137.404 210.07 133.194C212.811 128.987 214.182 123.455 214.182 116.602Z" fill="#053365"/>
<path d="M279.973 177.925L283.19 158.069L243.333 151.612L246.691 130.886L303.755 77.959L319.553 80.5182L309.761 140.955L322.516 143.022L319.135 163.892L306.38 161.826L303.164 181.682L279.973 177.925ZM269.614 134.452L289.325 137.645L293.481 111.992L269.614 134.452Z" fill="#053365"/>
<path d="M166.523 57.8251C164.846 57.8251 163.326 57.4971 161.961 56.8419C160.596 56.1868 159.425 55.3162 158.448 54.2309C157.469 53.1464 156.712 51.9047 156.175 50.5082C155.638 49.1117 155.369 47.6825 155.369 46.2205C155.369 44.6948 155.653 43.2336 156.223 41.8363C156.792 40.4398 157.577 39.2037 158.576 38.1288C159.575 37.0539 160.763 36.2001 162.139 35.5657C163.514 34.932 165.007 34.6152 166.619 34.6152C168.274 34.6152 169.783 34.9536 171.149 35.6303C172.513 36.307 173.679 37.1936 174.646 38.29C175.614 39.3865 176.365 40.633 176.903 42.0295C177.44 43.4268 177.709 44.8448 177.709 46.2852C177.709 47.8118 177.429 49.2665 176.871 50.6534C176.312 52.0396 175.539 53.2645 174.55 54.3282C173.561 55.392 172.379 56.241 171.004 56.8746C169.628 57.5083 168.135 57.8251 166.523 57.8251ZM159.882 46.2197C159.882 47.2085 160.032 48.1653 160.333 49.0886C160.634 50.0126 161.068 50.8298 161.638 51.5384C162.207 52.2478 162.906 52.8168 163.734 53.2469C164.561 53.6771 165.501 53.8917 166.555 53.8917C167.629 53.8917 168.58 53.6715 169.408 53.231C170.235 52.7913 170.933 52.2048 171.503 51.4738C172.072 50.7436 172.502 49.9217 172.793 49.008C173.083 48.0943 173.228 47.1654 173.228 46.219C173.228 45.231 173.071 44.2742 172.76 43.3501C172.448 42.4261 172.007 41.6097 171.438 40.9003C170.869 40.1909 170.17 39.6275 169.344 39.2077C168.516 38.7888 167.587 38.5789 166.556 38.5789C165.481 38.5789 164.525 38.7991 163.686 39.2396C162.848 39.6801 162.15 40.2603 161.591 40.9801C161.032 41.7007 160.608 42.517 160.318 43.4299C160.027 44.3452 159.882 45.2741 159.882 46.2197Z" fill="#249FFF"/>
<path d="M188.508 57.9854C187.133 57.9854 185.897 57.7492 184.802 57.276C183.705 56.8036 182.776 56.1636 182.013 55.3584C181.25 54.5524 180.664 53.6227 180.255 52.5694C179.847 51.5168 179.643 50.4092 179.643 49.2489C179.643 48.0671 179.847 46.9499 180.255 45.8965C180.663 44.8439 181.25 43.9143 182.013 43.1083C182.776 42.3023 183.705 41.6631 184.802 41.1899C185.897 40.7175 187.133 40.4805 188.508 40.4805C189.883 40.4805 191.114 40.7175 192.2 41.1899C193.284 41.6631 194.209 42.3023 194.972 43.1083C195.735 43.9143 196.321 44.8439 196.729 45.8965C197.137 46.9499 197.341 48.0671 197.341 49.2489C197.341 50.4092 197.137 51.5168 196.729 52.5694C196.321 53.6227 195.741 54.5516 194.989 55.3584C194.236 56.1644 193.312 56.8044 192.217 57.276C191.119 57.7484 189.883 57.9854 188.508 57.9854ZM184.091 49.2489C184.091 50.0014 184.205 50.6837 184.43 51.2958C184.656 51.9086 184.967 52.4401 185.364 52.8918C185.762 53.3426 186.229 53.6922 186.766 53.9395C187.303 54.1869 187.884 54.3106 188.508 54.3106C189.131 54.3106 189.711 54.1869 190.248 53.9395C190.785 53.693 191.253 53.3434 191.65 52.8918C192.047 52.4401 192.36 51.903 192.585 51.2798C192.81 50.6566 192.923 49.9695 192.923 49.217C192.923 48.4868 192.81 47.8101 192.585 47.1861C192.359 46.5628 192.047 46.0258 191.65 45.5741C191.252 45.1224 190.784 44.7737 190.248 44.5263C189.711 44.2789 189.131 44.1553 188.508 44.1553C187.884 44.1553 187.303 44.2845 186.766 44.5423C186.229 44.8 185.762 45.1552 185.364 45.606C184.966 46.0577 184.655 46.5947 184.43 47.218C184.204 47.842 184.091 48.5187 184.091 49.2489Z" fill="#249FFF"/>
<path d="M210.364 57.9854C209.031 57.9854 207.871 57.6901 206.883 57.0988C205.894 56.5083 205.12 55.7079 204.561 54.6976V64.5298H200.242V40.7709H204.013V43.6717C204.636 42.6837 205.442 41.9041 206.431 41.3343C207.419 40.7654 208.558 40.4805 209.847 40.4805C210.987 40.4805 212.039 40.7119 213.006 41.1739C213.974 41.636 214.807 42.2592 215.505 43.0436C216.203 43.8281 216.752 44.7522 217.15 45.8159C217.547 46.8796 217.746 48.0032 217.746 49.1851C217.746 50.41 217.563 51.5599 217.198 52.634C216.832 53.7089 216.321 54.6442 215.666 55.439C215.01 56.2346 214.231 56.857 213.329 57.3087C212.427 57.7596 211.438 57.9854 210.364 57.9854ZM208.914 54.3106C209.558 54.3106 210.154 54.171 210.703 53.8917C211.25 53.6124 211.718 53.2365 212.105 52.7633C212.491 52.2909 212.792 51.7426 213.007 51.1186C213.223 50.4954 213.33 49.8514 213.33 49.1851C213.33 48.4756 213.212 47.8149 212.975 47.2028C212.738 46.59 212.411 46.0585 211.992 45.6068C211.573 45.156 211.079 44.8008 210.51 44.5431C209.94 44.2853 209.322 44.1561 208.657 44.1561C208.248 44.1561 207.829 44.2263 207.4 44.3659C206.97 44.5056 206.572 44.7043 206.207 44.9628C205.841 45.2206 205.514 45.5222 205.224 45.8654C204.934 46.2093 204.713 46.586 204.563 46.9937V50.959C204.95 51.9262 205.541 52.7266 206.336 53.3602C207.129 53.9938 207.989 54.3106 208.914 54.3106Z" fill="#249FFF"/>
<path d="M227.062 57.9849C225.644 57.9849 224.257 57.7591 222.904 57.3082C221.55 56.8573 220.39 56.2118 219.422 55.3739L221.034 52.6662C222.066 53.3972 223.071 53.9502 224.048 54.3261C225.027 54.7027 225.999 54.8903 226.966 54.8903C227.825 54.8903 228.502 54.7291 228.997 54.4067C229.491 54.0843 229.738 53.6222 229.738 53.0206C229.738 52.4189 229.448 51.9784 228.867 51.6991C228.287 51.4198 227.342 51.0974 226.031 50.7319C224.935 50.431 224 50.1406 223.226 49.8613C222.452 49.582 221.828 49.2652 221.356 48.9101C220.883 48.5557 220.54 48.1472 220.324 47.6851C220.109 47.2231 220.003 46.6693 220.003 46.0245C220.003 45.165 220.168 44.3918 220.502 43.7031C220.835 43.016 221.302 42.4295 221.904 41.9459C222.506 41.4623 223.21 41.0921 224.016 40.8343C224.822 40.5765 225.696 40.4473 226.643 40.4473C227.911 40.4473 229.097 40.63 230.205 40.9955C231.312 41.361 232.327 41.9515 233.251 42.7686L231.51 45.3797C230.65 44.7349 229.818 44.2625 229.011 43.9617C228.205 43.6608 227.405 43.5108 226.61 43.5108C225.879 43.5108 225.266 43.6616 224.772 43.9617C224.277 44.2625 224.03 44.7461 224.03 45.4124C224.03 45.7133 224.089 45.9606 224.208 46.1538C224.325 46.3469 224.514 46.5192 224.772 46.6693C225.03 46.8201 225.368 46.9653 225.787 47.1042C226.206 47.2446 226.727 47.3891 227.35 47.5391C228.511 47.8399 229.504 48.1408 230.332 48.4416C231.159 48.7425 231.836 49.0864 232.363 49.4726C232.889 49.8597 233.276 50.3058 233.524 50.8101C233.77 51.3152 233.894 51.9225 233.894 52.6319C233.894 54.287 233.282 55.5925 232.056 56.5485C230.835 57.5069 229.168 57.9849 227.062 57.9849Z" fill="#249FFF"/>
<path d="M237.539 49.0557V34.5488H241.858V49.0557H237.539ZM237.539 57.6629V52.7951H241.858V57.6629H237.539Z" fill="#249FFF"/>
<path d="M215.94 250.447H187.601V252.769H215.94V250.447Z" fill="#37474F"/>
<path d="M215.94 253.471H187.601V255.792H215.94V253.471Z" fill="#37474F"/>
<path d="M215.94 256.496H187.601V258.817H215.94V256.496Z" fill="#37474F"/>
<path d="M215.94 259.52H187.601V261.841H215.94V259.52Z" fill="#37474F"/>
<path d="M215.94 262.543H187.601V264.864H215.94V262.543Z" fill="#37474F"/>
<path d="M228.207 322.865H174.33V325.187H228.207V322.865Z" fill="#37474F"/>
<path d="M228.207 325.889H174.33V328.21H228.207V325.889Z" fill="#37474F"/>
<path d="M228.207 328.912H174.33V331.233H228.207V328.912Z" fill="#37474F"/>
<path d="M228.207 331.936H174.33V334.257H228.207V331.936Z" fill="#37474F"/>
<path d="M228.207 334.961H174.33V337.282H228.207V334.961Z" fill="#37474F"/>
<path d="M150.69 231.258C150.716 230.944 138.897 226.985 138.897 226.985L139.596 186.378L155.268 183.016L150.69 231.258Z" fill="#D0D0D0"/>
<path opacity="0.2" d="M150.69 231.258C150.716 230.944 138.897 226.985 138.897 226.985L139.596 186.378L155.268 183.016L150.69 231.258Z" fill="black"/>
<path d="M258.942 247.198C259.025 246.893 271.485 247.244 271.485 247.244L284.804 208.877L271.247 200.326L258.942 247.198Z" fill="#D0D0D0"/>
<path opacity="0.2" d="M258.942 247.198C259.025 246.893 271.485 247.244 271.485 247.244L284.804 208.877L271.247 200.326L258.942 247.198Z" fill="black"/>
<path d="M148.415 246.212C148.415 246.212 152.796 180.538 156.64 158.934C156.64 158.934 235.974 164.934 278.802 181.303C278.802 181.303 256.722 258.013 255.58 261.82C255.58 261.82 199.713 250.815 148.415 246.212Z" fill="#D0D0D0"/>
<path opacity="0.1" d="M219.228 167.703C217.939 175.611 216.633 183.515 215.282 191.413L211.193 215.096L210.973 214.762L237.555 221.077L250.832 224.294L264.094 227.575L250.762 224.592L237.445 221.545L210.839 215.33L210.57 215.267L210.619 214.995L214.852 191.337C216.275 183.452 217.744 175.576 219.228 167.703Z" fill="black"/>
<path opacity="0.1" d="M216.312 172.21C216.326 172.935 215.748 173.679 214.918 173.752C214.516 173.79 214.079 173.661 213.752 173.377C213.424 173.092 213.229 172.653 213.227 172.21C213.229 171.767 213.423 171.327 213.751 171.042C214.077 170.755 214.516 170.629 214.918 170.667C215.749 170.739 216.326 171.485 216.312 172.21ZM216.312 172.21C216.308 171.844 216.146 171.485 215.874 171.255C215.601 171.024 215.244 170.93 214.919 170.967C214.25 171.045 213.815 171.646 213.825 172.21C213.815 172.774 214.248 173.378 214.919 173.454C215.244 173.491 215.602 173.397 215.875 173.166C216.146 172.935 216.308 172.575 216.312 172.21Z" fill="black"/>
<path opacity="0.1" d="M214.918 181.981C214.932 182.706 214.355 183.451 213.525 183.523C213.123 183.561 212.685 183.433 212.358 183.148C212.031 182.863 211.835 182.424 211.833 181.981C211.835 181.539 212.029 181.099 212.357 180.814C212.684 180.527 213.123 180.401 213.525 180.438C214.356 180.512 214.933 181.258 214.918 181.981ZM214.918 181.981C214.915 181.616 214.753 181.257 214.481 181.026C214.208 180.796 213.85 180.701 213.526 180.739C212.856 180.816 212.422 181.417 212.432 181.981C212.421 182.546 212.854 183.15 213.526 183.226C213.85 183.262 214.209 183.168 214.482 182.937C214.754 182.707 214.915 182.347 214.918 181.981Z" fill="black"/>
<path opacity="0.1" d="M213.202 192.308C213.217 193.032 212.639 193.778 211.809 193.849C211.407 193.888 210.969 193.76 210.642 193.474C210.315 193.189 210.12 192.75 210.117 192.308C210.12 191.865 210.314 191.425 210.641 191.14C210.968 190.853 211.407 190.727 211.809 190.764C212.64 190.838 213.217 191.583 213.202 192.308ZM213.202 192.308C213.199 191.942 213.037 191.583 212.765 191.352C212.492 191.122 212.135 191.028 211.81 191.065C211.14 191.143 210.706 191.743 210.716 192.308C210.705 192.872 211.139 193.476 211.81 193.552C212.135 193.589 212.493 193.494 212.766 193.264C213.037 193.032 213.199 192.673 213.202 192.308Z" fill="black"/>
<path opacity="0.1" d="M211.487 202.632C211.502 203.356 210.924 204.101 210.094 204.174C209.691 204.211 209.254 204.083 208.927 203.798C208.6 203.514 208.404 203.075 208.402 202.632C208.403 202.189 208.599 201.749 208.926 201.464C209.253 201.177 209.691 201.051 210.094 201.088C210.925 201.161 211.502 201.907 211.487 202.632ZM211.487 202.632C211.484 202.266 211.322 201.907 211.049 201.677C210.776 201.446 210.418 201.352 210.094 201.389C209.424 201.467 208.99 202.068 209 202.632C208.989 203.196 209.422 203.8 210.094 203.876C210.418 203.913 210.777 203.818 211.05 203.588C211.322 203.356 211.484 202.997 211.487 202.632Z" fill="black"/>
<path opacity="0.1" d="M217.333 219.099C217.348 219.823 216.77 220.568 215.94 220.64C215.538 220.678 215.1 220.55 214.773 220.265C214.446 219.98 214.25 219.541 214.248 219.099C214.25 218.656 214.444 218.216 214.772 217.931C215.099 217.644 215.538 217.518 215.94 217.555C216.771 217.628 217.347 218.374 217.333 219.099ZM217.333 219.099C217.33 218.733 217.168 218.374 216.895 218.143C216.622 217.913 216.265 217.819 215.94 217.856C215.27 217.934 214.836 218.534 214.846 219.099C214.835 219.663 215.269 220.267 215.94 220.343C216.265 220.38 216.623 220.285 216.896 220.054C217.168 219.823 217.329 219.464 217.333 219.099Z" fill="black"/>
<path opacity="0.1" d="M227.079 221.476C227.094 222.2 226.515 222.945 225.685 223.017C225.283 223.055 224.846 222.927 224.519 222.642C224.192 222.357 223.996 221.918 223.994 221.476C223.996 221.033 224.191 220.593 224.518 220.308C224.844 220.021 225.283 219.895 225.685 219.932C226.517 220.006 227.094 220.751 227.079 221.476ZM227.079 221.476C227.076 221.11 226.914 220.751 226.641 220.52C226.368 220.29 226.011 220.196 225.686 220.233C225.017 220.31 224.583 220.911 224.592 221.476C224.582 222.04 225.015 222.644 225.686 222.72C226.011 222.756 226.369 222.662 226.642 222.431C226.914 222.2 227.076 221.841 227.079 221.476Z" fill="black"/>
<path opacity="0.1" d="M236.826 223.854C236.84 224.579 236.262 225.324 235.433 225.396C235.03 225.434 234.593 225.306 234.266 225.021C233.939 224.736 233.743 224.297 233.741 223.854C233.743 223.412 233.937 222.972 234.265 222.687C234.591 222.4 235.03 222.274 235.433 222.311C236.263 222.384 236.84 223.13 236.826 223.854ZM236.826 223.854C236.823 223.489 236.661 223.13 236.389 222.899C236.116 222.669 235.758 222.574 235.433 222.612C234.764 222.689 234.33 223.29 234.339 223.854C234.329 224.419 234.762 225.023 235.433 225.099C235.758 225.135 236.116 225.041 236.389 224.81C236.661 224.579 236.822 224.219 236.826 223.854Z" fill="black"/>
<path opacity="0.1" d="M246.572 226.231C246.587 226.956 246.008 227.701 245.179 227.773C244.776 227.811 244.339 227.684 244.012 227.398C243.685 227.113 243.489 226.674 243.487 226.231C243.489 225.789 243.683 225.349 244.011 225.064C244.337 224.777 244.776 224.651 245.179 224.688C246.01 224.761 246.586 225.507 246.572 226.231ZM246.572 226.231C246.569 225.866 246.407 225.507 246.135 225.276C245.862 225.046 245.504 224.951 245.179 224.989C244.51 225.066 244.076 225.667 244.085 226.231C244.075 226.796 244.508 227.4 245.179 227.476C245.504 227.512 245.862 227.418 246.135 227.187C246.407 226.956 246.569 226.597 246.572 226.231Z" fill="black"/>
<path opacity="0.1" d="M256.314 228.716C256.273 229.44 255.639 230.138 254.806 230.146C254.402 230.153 253.976 229.992 253.672 229.683C253.367 229.373 253.205 228.921 253.237 228.479C253.273 228.038 253.502 227.615 253.85 227.356C254.198 227.095 254.645 227.002 255.043 227.071C255.867 227.207 256.384 227.996 256.314 228.716ZM256.314 228.716C256.338 228.351 256.204 227.981 255.951 227.73C255.696 227.478 255.347 227.357 255.02 227.37C254.347 227.395 253.867 227.961 253.833 228.525C253.779 229.086 254.165 229.722 254.829 229.849C255.149 229.912 255.514 229.845 255.804 229.635C256.093 229.426 256.283 229.081 256.314 228.716Z" fill="black"/>
<path opacity="0.1" d="M209.771 212.958C209.785 213.683 209.208 214.428 208.378 214.5C207.976 214.538 207.538 214.411 207.211 214.125C206.884 213.84 206.688 213.401 206.686 212.958C206.688 212.515 206.883 212.076 207.21 211.791C207.537 211.503 207.976 211.377 208.378 211.415C209.209 211.487 209.786 212.234 209.771 212.958ZM209.771 212.958C209.768 212.593 209.606 212.234 209.333 212.003C209.06 211.772 208.703 211.678 208.378 211.716C207.708 211.793 207.274 212.394 207.284 212.958C207.273 213.522 207.707 214.126 208.378 214.202C208.703 214.239 209.061 214.145 209.333 213.913C209.607 213.683 209.768 213.324 209.771 212.958Z" fill="black"/>
<path opacity="0.2" d="M193.358 230.067C202.61 221.748 203.366 207.504 195.048 198.252C186.729 189 172.485 188.244 163.233 196.563C153.981 204.881 153.225 219.125 161.543 228.377C169.862 237.629 184.106 238.385 193.358 230.067Z" fill="black"/>
<path d="M195.185 219.711C198.718 210.38 194.016 199.951 184.685 196.419C175.353 192.886 164.924 197.588 161.392 206.92C157.86 216.251 162.561 226.68 171.893 230.212C181.225 233.745 191.653 229.043 195.185 219.711Z" fill="#263238"/>
<path d="M177.207 206.672L172.983 205.988L172.299 210.212L176.522 210.896L177.207 206.672Z" fill="#D0D0D0"/>
<path d="M173.667 201.764L169.443 201.08L168.759 205.304L172.982 205.988L173.667 201.764Z" fill="#D0D0D0"/>
<path d="M190.561 204.501L186.337 203.816L185.653 208.04L189.877 208.724L190.561 204.501Z" fill="#D0D0D0"/>
<path d="M170.945 218.563L166.721 217.879L166.037 222.103L170.261 222.787L170.945 218.563Z" fill="#D0D0D0"/>
<path d="M187.84 221.299L183.616 220.615L182.932 224.839L187.156 225.523L187.84 221.299Z" fill="#D0D0D0"/>
<path d="M175.853 215.024L171.629 214.34L170.945 218.564L175.169 219.248L175.853 215.024Z" fill="#D0D0D0"/>
<path d="M180.753 211.532L176.53 210.848L175.846 215.071L180.069 215.756L180.753 211.532Z" fill="#D0D0D0"/>
<path d="M185.654 208.04L181.43 207.355L180.746 211.579L184.97 212.263L185.654 208.04Z" fill="#D0D0D0"/>
<path d="M184.305 216.389L180.082 215.705L179.397 219.929L183.621 220.613L184.305 216.389Z" fill="#D0D0D0"/>
<path d="M256.181 237.022C264.066 227.398 262.657 213.204 253.033 205.318C243.409 197.432 229.215 198.841 221.329 208.465C213.443 218.089 214.853 232.283 224.476 240.169C234.1 248.055 248.295 246.646 256.181 237.022Z" fill="#D0D0D0"/>
<path opacity="0.2" d="M256.181 237.022C264.066 227.398 262.657 213.204 253.033 205.318C243.409 197.432 229.215 198.841 221.329 208.465C213.443 218.089 214.853 232.283 224.476 240.169C234.1 248.055 248.295 246.646 256.181 237.022Z" fill="black"/>
<path opacity="0.2" d="M260.675 227.965C260.571 228.409 260.453 228.837 260.32 229.266L216.408 219.9C216.511 219.116 216.652 218.332 216.836 217.541C219.712 205.44 231.858 197.959 243.967 200.834C256.07 203.71 263.551 215.855 260.675 227.965Z" fill="black"/>
<path d="M245.717 239.428C254.924 235.581 259.269 224.999 255.423 215.792C251.576 206.585 240.994 202.239 231.787 206.086C222.58 209.932 218.234 220.515 222.081 229.722C225.927 238.929 236.51 243.274 245.717 239.428Z" fill="#263238"/>
<path d="M243.303 212.882L239.14 211.893L234.216 232.613L238.379 233.603L243.303 212.882Z" fill="#D0D0D0"/>
<path d="M261.982 227.542L215.857 216.58C218.884 203.845 231.665 195.977 244.399 199.003C257.134 202.031 265.009 214.807 261.982 227.542Z" fill="#D0D0D0"/>
<path opacity="0.2" d="M261.982 227.542L215.857 216.58C218.884 203.845 231.665 195.977 244.399 199.003C257.134 202.031 265.009 214.807 261.982 227.542Z" fill="black"/>
<path opacity="0.1" d="M199.557 236.146C199.673 234.345 200.335 232.519 201.641 231.074C202.285 230.347 203.144 229.775 204.091 229.427C205.042 229.078 206.07 229.016 207.044 229.099C208.036 229.215 209.049 229.565 209.876 230.19C210.686 230.829 211.308 231.661 211.673 232.557C212.426 234.343 212.508 236.252 212.143 238.022C211.843 236.253 211.386 234.535 210.555 233.124C209.731 231.703 208.427 230.82 206.873 230.683C205.289 230.485 203.742 230.911 202.496 231.963C201.251 233.013 200.3 234.515 199.557 236.146Z" fill="black"/>
<path d="M154.585 190.196C154.772 187.789 155.043 185.394 155.271 182.992C155.527 180.595 155.79 178.199 156.082 175.807C156.359 173.413 156.671 171.024 156.977 168.633C157.277 166.242 157.623 163.858 157.944 161.47L158.03 160.832L158.676 160.873C163.874 161.2 169.061 161.62 174.241 162.153C176.83 162.418 179.417 162.719 182 163.051C184.578 163.422 187.161 163.763 189.724 164.232L174.149 163.268L158.591 162.262L159.322 161.665C158.969 164.049 158.64 166.436 158.266 168.816C157.897 171.197 157.534 173.579 157.137 175.957C156.754 178.335 156.343 180.711 155.924 183.085C155.478 185.455 155.073 187.832 154.585 190.196Z" fill="white"/>
<path d="M158.332 208.404C158.855 205.51 160.17 202.753 161.937 200.352C162.376 199.748 162.877 199.19 163.358 198.615C163.879 198.078 164.421 197.557 164.955 197.03C165.539 196.556 166.128 196.086 166.726 195.63C167.362 195.227 167.99 194.807 168.637 194.42C169.317 194.092 169.994 193.756 170.681 193.444L172.821 192.704L175.037 192.247C175.78 192.138 176.536 192.115 177.282 192.059C180.286 191.982 183.242 192.622 185.956 193.721C183.068 193.18 180.19 192.88 177.353 193.151C174.523 193.414 171.774 194.26 169.315 195.645C166.837 196.998 164.643 198.864 162.789 201.031C160.943 203.209 159.415 205.677 158.332 208.404Z" fill="white"/>
<path d="M220.477 214.489C221.395 211.696 223.078 209.147 225.159 207.012C225.678 206.475 226.251 205.991 226.807 205.489C227.397 205.028 228.005 204.588 228.608 204.138C229.251 203.749 229.899 203.365 230.555 202.997C231.24 202.685 231.92 202.355 232.615 202.061C233.334 201.831 234.051 201.591 234.774 201.378L236.996 200.94L239.254 200.793C240.006 200.788 240.757 200.87 241.504 200.917C244.49 201.255 247.328 202.298 249.864 203.761C247.078 202.827 244.27 202.131 241.423 202.009C238.584 201.879 235.744 202.337 233.117 203.37C230.477 204.367 228.045 205.912 225.91 207.803C223.779 209.706 221.925 211.938 220.477 214.489Z" fill="white"/>
<path d="M150.935 286.684C145.163 286.684 132.529 285.387 124.399 274.934C113.998 261.561 117.758 235.901 117.922 234.814L122.438 235.5C122.4 235.746 118.812 260.31 128.005 272.13C136.993 283.686 153.295 282.027 153.459 282.007L153.973 286.545C153.795 286.566 152.677 286.684 150.935 286.684Z" fill="#D0D0D0"/>
<path opacity="0.4" d="M150.935 286.684C145.163 286.684 132.529 285.387 124.399 274.934C113.998 261.561 117.758 235.901 117.922 234.814L122.438 235.5C122.4 235.746 118.812 260.31 128.005 272.13C136.993 283.686 153.295 282.027 153.459 282.007L153.973 286.545C153.795 286.566 152.677 286.684 150.935 286.684Z" fill="white"/>
<path d="M123.767 238.606C122.944 238.606 122.103 238.538 121.247 238.399C113.629 237.165 110.256 232.607 108.768 229C107.277 225.385 106.932 221.012 107.744 216.004L117.404 217.57C116.901 220.672 117.047 223.407 117.815 225.268C118.363 226.596 119.425 228.19 122.811 228.738C124.358 228.989 126.03 228.856 127.781 226.216C129.132 224.178 129.944 221.404 130.228 219.647L139.889 221.212C139.665 222.594 138.718 227.43 135.937 231.624C132.912 236.186 128.655 238.606 123.767 238.606Z" fill="#D0D0D0"/>
<path d="M160.478 299.756C160.461 299.547 152.294 298.243 152.294 298.243L148.329 271.586L158.222 267.678L160.478 299.756Z" fill="#D0D0D0"/>
<path opacity="0.2" d="M160.478 299.756C160.461 299.547 152.294 298.243 152.294 298.243L148.329 271.586L158.222 267.678L160.478 299.756Z" fill="black"/>
<path d="M241.232 299.806C241.254 299.598 249.449 298.474 249.449 298.474L254.001 271.911L244.197 267.785L241.232 299.806Z" fill="#D0D0D0"/>
<path opacity="0.2" d="M241.232 299.806C241.254 299.598 249.449 298.474 249.449 298.474L254.001 271.911L244.197 267.785L241.232 299.806Z" fill="black"/>
<path d="M157.079 261.709C157.079 261.709 223.142 258.884 245.458 262.603C245.458 262.603 238.905 326.528 238.551 327.768C238.551 327.768 172.835 327.591 162.562 327.768C162.562 327.768 156.994 285.261 157.079 261.709Z" fill="#D0D0D0"/>
<path opacity="0.2" d="M177.146 279.225C177.146 279.225 213.21 277.801 225.393 279.676C225.393 279.676 221.815 311.91 221.622 312.535C221.622 312.535 185.747 312.446 180.14 312.535C180.138 312.535 177.674 290.474 177.146 279.225Z" fill="black"/>
<path opacity="0.2" d="M182.075 312.522C181.249 312.522 180.594 312.533 180.136 312.538C180.136 312.538 177.675 290.473 177.143 279.224C177.143 279.224 177.963 279.192 179.396 279.145L182.075 312.522Z" fill="black"/>
<path d="M192.712 287.18C190.691 286.543 188.537 287.665 187.9 289.685C187.262 291.709 188.386 293.86 190.407 294.497C192.427 295.134 194.579 294.012 195.215 291.991C195.852 289.972 194.732 287.817 192.712 287.18ZM194.771 291.851C194.211 293.627 192.321 294.612 190.547 294.052C188.773 293.493 187.788 291.603 188.348 289.827C188.907 288.053 190.798 287.067 192.573 287.628C194.345 288.186 195.33 290.077 194.771 291.851ZM192.712 287.18C190.691 286.543 188.537 287.665 187.9 289.685C187.262 291.709 188.386 293.86 190.407 294.497C192.427 295.134 194.579 294.012 195.215 291.991C195.852 289.972 194.732 287.817 192.712 287.18ZM194.771 291.851C194.211 293.627 192.321 294.612 190.547 294.052C188.773 293.493 187.788 291.603 188.348 289.827C188.907 288.053 190.798 287.067 192.573 287.628C194.345 288.186 195.33 290.077 194.771 291.851ZM192.712 287.18C190.691 286.543 188.537 287.665 187.9 289.685C187.262 291.709 188.386 293.86 190.407 294.497C192.427 295.134 194.579 294.012 195.215 291.991C195.852 289.972 194.732 287.817 192.712 287.18ZM194.771 291.851C194.211 293.627 192.321 294.612 190.547 294.052C188.773 293.493 187.788 291.603 188.348 289.827C188.907 288.053 190.798 287.067 192.573 287.628C194.345 288.186 195.33 290.077 194.771 291.851ZM193.99 283.128C189.728 281.786 185.19 284.153 183.847 288.409C182.506 292.667 184.868 297.208 189.129 298.55C193.385 299.891 197.927 297.526 199.268 293.268C200.611 289.012 198.247 284.468 193.99 283.128ZM195.786 292.17C195.051 294.502 192.558 295.802 190.228 295.067C187.898 294.332 186.599 291.839 187.333 289.507C188.068 287.174 190.562 285.878 192.892 286.612C195.221 287.347 196.52 289.84 195.786 292.17ZM195.215 291.992C195.852 289.972 194.732 287.818 192.712 287.181C190.691 286.544 188.537 287.666 187.9 289.686C187.262 291.709 188.386 293.861 190.407 294.498C192.427 295.134 194.579 294.013 195.215 291.992ZM194.771 291.851C194.211 293.627 192.321 294.612 190.547 294.052C188.773 293.493 187.788 291.603 188.348 289.827C188.907 288.053 190.798 287.067 192.573 287.628C194.345 288.186 195.33 290.077 194.771 291.851ZM192.712 287.18C190.691 286.543 188.537 287.665 187.9 289.685C187.262 291.709 188.386 293.86 190.407 294.497C192.427 295.134 194.579 294.012 195.215 291.991C195.852 289.972 194.732 287.817 192.712 287.18ZM194.771 291.851C194.211 293.627 192.321 294.612 190.547 294.052C188.773 293.493 187.788 291.603 188.348 289.827C188.907 288.053 190.798 287.067 192.573 287.628C194.345 288.186 195.33 290.077 194.771 291.851ZM192.712 287.18C190.691 286.543 188.537 287.665 187.9 289.685C187.262 291.709 188.386 293.86 190.407 294.497C192.427 295.134 194.579 294.012 195.215 291.991C195.852 289.972 194.732 287.817 192.712 287.18ZM194.771 291.851C194.211 293.627 192.321 294.612 190.547 294.052C188.773 293.493 187.788 291.603 188.348 289.827C188.907 288.053 190.798 287.067 192.573 287.628C194.345 288.186 195.33 290.077 194.771 291.851Z" fill="#D0D0D0"/>
<path d="M190.713 298.696L187.748 297.762L187.25 299.912L189.887 300.743L190.713 298.696Z" fill="#D0D0D0"/>
<path d="M185.384 295.919L183.948 293.162L182.076 294.331L183.352 296.783L185.384 295.919Z" fill="#D0D0D0"/>
<path d="M183.58 290.186L184.514 287.222L182.364 286.725L181.532 289.361L183.58 290.186Z" fill="#D0D0D0"/>
<path d="M186.357 284.859L189.114 283.424L187.945 281.551L185.493 282.828L186.357 284.859Z" fill="#D0D0D0"/>
<path d="M192.088 283.055L195.054 283.989L195.551 281.839L192.914 281.008L192.088 283.055Z" fill="#D0D0D0"/>
<path d="M197.417 285.832L198.853 288.589L200.725 287.421L199.448 284.969L197.417 285.832Z" fill="#D0D0D0"/>
<path d="M199.222 291.564L198.287 294.529L200.438 295.027L201.268 292.39L199.222 291.564Z" fill="#D0D0D0"/>
<path d="M196.444 296.893L193.687 298.329L194.856 300.201L197.308 298.924L196.444 296.893Z" fill="#D0D0D0"/>
<path d="M205.752 298.46C204.556 297.681 202.956 298.021 202.178 299.214C201.399 300.411 201.739 302.01 202.934 302.789C204.129 303.567 205.726 303.228 206.505 302.033C207.283 300.839 206.946 299.238 205.752 298.46ZM206.243 301.861C205.559 302.912 204.154 303.209 203.105 302.525C202.055 301.842 201.759 300.438 202.443 299.388C203.126 298.338 204.53 298.041 205.58 298.725C206.629 299.408 206.926 300.812 206.243 301.861ZM205.752 298.46C204.556 297.681 202.956 298.021 202.178 299.214C201.399 300.411 201.739 302.01 202.934 302.789C204.129 303.567 205.726 303.228 206.505 302.033C207.283 300.839 206.946 299.238 205.752 298.46ZM206.243 301.861C205.559 302.912 204.154 303.209 203.105 302.525C202.055 301.842 201.759 300.438 202.443 299.388C203.126 298.338 204.53 298.041 205.58 298.725C206.629 299.408 206.926 300.812 206.243 301.861ZM205.752 298.46C204.556 297.681 202.956 298.021 202.178 299.214C201.399 300.411 201.739 302.01 202.934 302.789C204.129 303.567 205.726 303.228 206.505 302.033C207.283 300.839 206.946 299.238 205.752 298.46ZM206.243 301.861C205.559 302.912 204.154 303.209 203.105 302.525C202.055 301.842 201.759 300.438 202.443 299.388C203.126 298.338 204.53 298.041 205.58 298.725C206.629 299.408 206.926 300.812 206.243 301.861ZM207.313 296.064C204.792 294.423 201.421 295.137 199.78 297.655C198.14 300.174 198.852 303.547 201.372 305.187C203.889 306.826 207.262 306.113 208.902 303.595C210.543 301.077 209.831 297.703 207.313 296.064ZM206.843 302.252C205.944 303.632 204.093 304.024 202.715 303.126C201.336 302.228 200.944 300.377 201.842 298.997C202.741 297.618 204.593 297.227 205.971 298.125C207.349 299.022 207.74 300.873 206.843 302.252ZM206.505 302.033C207.283 300.838 206.946 299.239 205.752 298.461C204.556 297.682 202.956 298.021 202.178 299.215C201.399 300.412 201.739 302.011 202.934 302.789C204.129 303.567 205.726 303.228 206.505 302.033ZM206.243 301.861C205.559 302.912 204.154 303.209 203.105 302.525C202.055 301.842 201.759 300.438 202.443 299.388C203.126 298.338 204.53 298.041 205.58 298.725C206.629 299.408 206.926 300.812 206.243 301.861ZM205.752 298.46C204.556 297.681 202.956 298.021 202.178 299.214C201.399 300.411 201.739 302.01 202.934 302.789C204.129 303.567 205.726 303.228 206.505 302.033C207.283 300.839 206.946 299.238 205.752 298.46ZM206.243 301.861C205.559 302.912 204.154 303.209 203.105 302.525C202.055 301.842 201.759 300.438 202.443 299.388C203.126 298.338 204.53 298.041 205.58 298.725C206.629 299.408 206.926 300.812 206.243 301.861ZM205.752 298.46C204.556 297.681 202.956 298.021 202.178 299.214C201.399 300.411 201.739 302.01 202.934 302.789C204.129 303.567 205.726 303.228 206.505 302.033C207.283 300.839 206.946 299.238 205.752 298.46ZM206.243 301.861C205.559 302.912 204.154 303.209 203.105 302.525C202.055 301.842 201.759 300.438 202.443 299.388C203.126 298.338 204.53 298.041 205.58 298.725C206.629 299.408 206.926 300.812 206.243 301.861Z" fill="#DBDBDB"/>
<path d="M202.372 305.568L200.618 304.426L199.907 305.731L201.467 306.746L202.372 305.568Z" fill="#DBDBDB"/>
<path d="M199.419 302.804L198.987 300.756L197.561 301.176L197.946 302.997L199.419 302.804Z" fill="#DBDBDB"/>
<path d="M199.286 298.76L200.428 297.006L199.123 296.295L198.107 297.855L199.286 298.76Z" fill="#DBDBDB"/>
<path d="M202.05 295.807L204.098 295.374L203.678 293.949L201.857 294.334L202.05 295.807Z" fill="#DBDBDB"/>
<path d="M206.094 295.673L207.847 296.815L208.559 295.51L206.999 294.494L206.094 295.673Z" fill="#DBDBDB"/>
<path d="M209.047 298.437L209.479 300.485L210.905 300.065L210.52 298.244L209.047 298.437Z" fill="#DBDBDB"/>
<path d="M209.18 302.48L208.038 304.234L209.343 304.946L210.359 303.385L209.18 302.48Z" fill="#DBDBDB"/>
<path d="M206.416 305.436L204.368 305.868L204.787 307.293L206.609 306.909L206.416 305.436Z" fill="#DBDBDB"/>
<path d="M243.864 320.329L246.403 320.802L253.665 271.623L250.772 271.092L243.864 320.329Z" fill="#D0D0D0"/>
<path d="M221.622 312.536L225.392 279.677L250.772 271.092C250.772 271.092 243.864 320.861 243.864 320.329L221.622 312.536Z" fill="#D0D0D0"/>
<path opacity="0.4" d="M221.622 312.536L225.392 279.677L250.772 271.092C250.772 271.092 243.864 320.861 243.864 320.329L221.622 312.536Z" fill="white"/>
<path d="M160.11 281.007C159.697 278.285 159.474 275.541 159.304 272.794C159.226 271.42 159.19 270.044 159.16 268.668C159.133 267.292 159.109 265.915 159.15 264.539L159.161 264.177L159.513 264.158C164.555 263.887 169.593 263.556 174.638 263.336C179.681 263.087 184.725 262.861 189.772 262.703C184.741 263.159 179.707 263.547 174.672 263.912C169.638 264.306 164.598 264.588 159.562 264.931L159.925 264.55L159.904 268.66L159.952 272.771C159.959 274.143 159.984 275.514 160.024 276.886L160.11 281.007Z" fill="white"/>
<path d="M228.932 280.159C230.504 279.412 232.101 278.718 233.716 278.077C235.328 277.421 236.953 276.8 238.598 276.23C240.245 275.668 241.898 275.117 243.578 274.65C245.256 274.178 246.949 273.741 248.679 273.458L249.104 273.389L249.028 273.795C248.63 275.922 248.214 278.047 247.721 280.159C247.906 277.998 248.166 275.848 248.444 273.702L248.794 274.039C247.117 274.439 245.454 274.906 243.796 275.396C242.139 275.892 240.487 276.414 238.84 276.95L228.932 280.159Z" fill="white"/>
<path opacity="0.1" d="M171.093 261.842L171.521 270.06L171.886 278.281L172.52 294.727L173.016 311.177L173.214 319.403L173.349 327.632L172.921 319.414L172.555 311.193L171.922 294.747L171.428 278.297L171.23 270.071L171.093 261.842Z" fill="black"/>
<path opacity="0.1" d="M168.739 266.796C168.897 267.504 168.478 268.348 167.679 268.582C167.292 268.699 166.839 268.661 166.461 268.445C166.084 268.231 165.805 267.84 165.716 267.405C165.63 266.971 165.734 266.501 165.999 266.157C166.262 265.812 166.668 265.6 167.069 265.558C167.897 265.465 168.611 266.083 168.739 266.796ZM168.739 266.796C168.664 266.438 168.434 266.118 168.122 265.946C167.809 265.774 167.439 265.752 167.128 265.853C166.487 266.062 166.18 266.736 166.301 267.288C166.403 267.843 166.947 268.349 167.62 268.291C167.945 268.263 168.278 268.1 168.499 267.82C168.721 267.54 168.808 267.155 168.739 266.796Z" fill="black"/>
<path opacity="0.1" d="M169.305 276.651C169.463 277.359 169.044 278.203 168.245 278.438C167.858 278.554 167.404 278.516 167.027 278.301C166.65 278.086 166.371 277.695 166.282 277.261C166.196 276.826 166.3 276.357 166.565 276.013C166.828 275.667 167.234 275.456 167.635 275.414C168.463 275.321 169.177 275.939 169.305 276.651ZM169.305 276.651C169.229 276.294 169 275.974 168.688 275.801C168.375 275.629 168.005 275.607 167.694 275.709C167.053 275.917 166.746 276.592 166.867 277.144C166.969 277.698 167.513 278.205 168.186 278.147C168.511 278.119 168.844 277.955 169.066 277.675C169.287 277.395 169.375 277.01 169.305 276.651Z" fill="black"/>
<path opacity="0.1" d="M169.664 287.112C169.822 287.82 169.402 288.664 168.604 288.899C168.217 289.015 167.763 288.977 167.386 288.762C167.008 288.547 166.73 288.156 166.641 287.722C166.555 287.288 166.659 286.818 166.924 286.474C167.187 286.127 167.593 285.917 167.994 285.874C168.822 285.782 169.536 286.4 169.664 287.112ZM169.664 287.112C169.588 286.755 169.359 286.435 169.047 286.262C168.734 286.09 168.364 286.068 168.053 286.17C167.412 286.378 167.105 287.052 167.226 287.604C167.328 288.159 167.872 288.665 168.545 288.607C168.87 288.579 169.203 288.416 169.424 288.135C169.646 287.855 169.733 287.471 169.664 287.112Z" fill="black"/>
<path opacity="0.1" d="M170.024 297.571C170.182 298.279 169.762 299.123 168.963 299.358C168.576 299.474 168.123 299.436 167.745 299.221C167.368 299.006 167.089 298.615 167 298.181C166.915 297.746 167.018 297.277 167.283 296.933C167.547 296.587 167.951 296.376 168.353 296.333C169.182 296.241 169.895 296.859 170.024 297.571ZM170.024 297.571C169.948 297.214 169.719 296.894 169.406 296.721C169.093 296.549 168.724 296.527 168.412 296.629C167.772 296.837 167.464 297.511 167.586 298.064C167.687 298.618 168.231 299.125 168.904 299.067C169.23 299.039 169.562 298.876 169.783 298.595C170.005 298.315 170.092 297.93 170.024 297.571Z" fill="black"/>
<path opacity="0.1" d="M170.382 308.032C170.54 308.74 170.121 309.584 169.322 309.819C168.935 309.935 168.482 309.897 168.104 309.682C167.727 309.467 167.448 309.076 167.359 308.642C167.273 308.207 167.377 307.738 167.642 307.394C167.905 307.048 168.311 306.837 168.712 306.794C169.541 306.702 170.254 307.319 170.382 308.032ZM170.382 308.032C170.307 307.675 170.077 307.355 169.765 307.182C169.452 307.01 169.083 306.988 168.771 307.09C168.13 307.298 167.823 307.972 167.945 308.524C168.046 309.08 168.59 309.586 169.263 309.528C169.588 309.5 169.921 309.337 170.143 309.056C170.364 308.775 170.451 308.39 170.382 308.032Z" fill="black"/>
<path opacity="0.1" d="M170.741 318.493C170.899 319.201 170.48 320.045 169.681 320.28C169.294 320.396 168.84 320.358 168.463 320.142C168.086 319.928 167.807 319.537 167.718 319.103C167.632 318.669 167.736 318.199 168.001 317.855C168.264 317.508 168.669 317.298 169.071 317.255C169.899 317.163 170.612 317.78 170.741 318.493ZM170.741 318.493C170.666 318.136 170.436 317.816 170.124 317.643C169.811 317.471 169.441 317.449 169.13 317.551C168.489 317.759 168.182 318.433 168.303 318.985C168.405 319.541 168.949 320.047 169.622 319.988C169.947 319.961 170.28 319.797 170.501 319.517C170.723 319.236 170.81 318.852 170.741 318.493Z" fill="black"/>
<path d="M173.971 334.489L136.565 345.824L137.889 350.195L175.295 338.86L173.971 334.489Z" fill="#D0D0D0"/>
<path opacity="0.4" d="M173.971 334.489L136.565 345.824L137.889 350.195L175.295 338.86L173.971 334.489Z" fill="white"/>
<path d="M156.074 338.428L151.722 339.812L153.778 346.277L158.13 344.893L156.074 338.428Z" fill="#D0D0D0"/>
<path d="M137.597 356.597L127.944 314.799L98.8091 321.706L113.156 362.442L137.597 356.597Z" fill="#D0D0D0"/>
<path d="M144.061 354.472L137.596 356.597L127.944 314.799L137.242 317.012L144.061 354.472Z" fill="#D0D0D0"/>
<path opacity="0.2" d="M144.061 354.472L137.596 356.597L127.944 314.799L137.242 317.012L144.061 354.472Z" fill="black"/>
<path d="M174.649 341.63C177.388 341.63 179.608 339.41 179.608 336.672C179.608 333.933 177.388 331.713 174.649 331.713C171.911 331.713 169.69 333.933 169.69 336.672C169.69 339.41 171.911 341.63 174.649 341.63Z" fill="#D0D0D0"/>
<path d="M225.676 334.367L224.342 338.734L261.725 350.148L263.058 345.78L225.676 334.367Z" fill="#D0D0D0"/>
<path opacity="0.4" d="M225.676 334.367L224.342 338.734L261.725 350.148L263.058 345.78L225.676 334.367Z" fill="white"/>
<path d="M243.599 338.325L241.529 344.785L245.878 346.179L247.948 339.719L243.599 338.325Z" fill="#D0D0D0"/>
<path d="M262.029 356.56L271.771 314.781L300.891 321.751L286.458 362.456L262.029 356.56Z" fill="#D0D0D0"/>
<path d="M255.569 354.42L262.029 356.56L271.771 314.781L262.468 316.976L255.569 354.42Z" fill="#D0D0D0"/>
<path opacity="0.2" d="M255.569 354.42L262.029 356.56L271.771 314.781L262.468 316.976L255.569 354.42Z" fill="black"/>
<path d="M220.06 336.546C220.054 339.285 222.269 341.51 225.008 341.516C227.747 341.522 229.972 339.306 229.978 336.568C229.983 333.829 227.768 331.604 225.03 331.598C222.29 331.591 220.065 333.807 220.06 336.546Z" fill="#D0D0D0"/>
<path d="M257.485 284.991C257.602 284.881 269.617 273.737 283.751 277.549C298.204 281.449 310.138 303.219 310.256 303.439L314.273 301.268C313.751 300.301 301.305 277.548 284.939 273.141C268.295 268.652 254.901 281.148 254.338 281.683L257.485 284.991Z" fill="#D0D0D0"/>
<path opacity="0.4" d="M257.485 284.991C257.602 284.881 269.617 273.737 283.751 277.549C298.204 281.449 310.138 303.219 310.256 303.439L314.273 301.268C313.751 300.301 301.305 277.548 284.939 273.141C268.295 268.652 254.901 281.148 254.338 281.683L257.485 284.991Z" fill="white"/>
<path d="M304.93 325.354L313.585 320.785C312.754 319.212 311.731 316.508 311.583 314.067C311.39 310.904 312.646 309.791 314.03 309.06C317.063 307.458 318.873 308.093 320.109 308.821C321.843 309.845 323.606 311.94 325.074 314.72L333.729 310.15C331.36 305.664 328.452 302.381 325.083 300.392C321.723 298.412 316.285 296.802 309.461 300.404C304.141 303.213 301.426 308.276 301.814 314.661C302.119 319.685 304.276 324.115 304.93 325.354Z" fill="#D0D0D0"/>
<path d="M259.309 269.741C261.185 268.445 263.105 267.224 265.032 266.014C266.955 264.797 268.909 263.634 270.863 262.47C272.827 261.323 274.792 260.178 276.788 259.086L279.784 257.45C280.798 256.93 281.797 256.386 282.823 255.887C281.889 256.542 280.929 257.152 279.983 257.787L277.1 259.614C275.177 260.831 273.224 261.995 271.269 263.156C269.304 264.302 267.339 265.448 265.343 266.539C263.351 267.64 261.352 268.728 259.309 269.741Z" fill="#263238"/>
<path d="M254.338 288.414C257.024 289.945 259.571 291.672 262.083 293.448C264.581 295.243 267.043 297.088 269.364 299.13C266.676 297.601 264.131 295.874 261.619 294.097C259.123 292.3 256.661 290.456 254.338 288.414Z" fill="#263238"/>
<path d="M258.75 286.117C260.824 286.747 262.865 287.459 264.901 288.182C266.94 288.897 268.958 289.671 270.974 290.446C272.984 291.237 274.994 292.03 276.981 292.881L279.961 294.159C280.943 294.613 281.936 295.04 282.909 295.517C281.87 295.21 280.849 294.854 279.818 294.524L276.758 293.453C274.718 292.737 272.701 291.964 270.685 291.189C268.676 290.397 266.666 289.604 264.68 288.752C262.689 287.909 260.705 287.054 258.75 286.117Z" fill="#263238"/>
<path d="M264.641 271.492C266.628 270.976 268.629 270.546 270.634 270.128C272.636 269.702 274.65 269.338 276.663 268.973C278.68 268.628 280.697 268.284 282.725 268.001L285.767 267.579C286.786 267.467 287.8 267.328 288.824 267.24C287.832 267.507 286.831 267.722 285.835 267.964L282.831 268.605C280.828 269.03 278.815 269.395 276.801 269.758C274.784 270.102 272.767 270.447 270.74 270.729C268.714 271.022 266.684 271.3 264.641 271.492Z" fill="#263238"/>
<path d="M216.754 283.919C217.091 282.304 217.633 280.731 218.333 279.23C219.035 277.732 219.893 276.295 220.971 275.017C222.051 273.753 223.38 272.638 224.98 272.021C226.58 271.425 228.412 271.43 230.017 272.071C231.641 272.704 232.921 274.068 233.612 275.637C233.97 276.421 234.194 277.261 234.287 278.12C234.367 278.978 234.333 279.87 233.991 280.727C233.818 281.149 233.545 281.574 233.11 281.857C232.899 282.004 232.641 282.088 232.388 282.127C232.139 282.163 231.884 282.152 231.593 282.051C231.06 281.824 230.792 281.395 230.562 281.008C230.357 280.605 230.199 280.194 230.092 279.778C229.643 278.112 229.598 276.418 229.677 274.743C229.915 271.407 230.791 268.07 232.589 265.198C233.496 263.779 234.634 262.473 236.049 261.519C237.445 260.558 239.08 259.896 240.75 259.705C241.571 259.506 242.419 259.525 243.258 259.484C243.678 259.439 244.096 259.541 244.515 259.563C244.93 259.618 245.357 259.611 245.761 259.731C247.419 260.029 248.978 260.694 250.433 261.5C251.88 262.334 253.169 263.404 254.345 264.566C255.511 265.74 256.572 267.024 257.424 268.438C255.537 265.745 253.107 263.407 250.242 261.841C248.8 261.092 247.277 260.477 245.672 260.228C245.28 260.118 244.869 260.137 244.468 260.093C244.065 260.081 243.664 259.989 243.26 260.043C242.455 260.102 241.644 260.098 240.858 260.31C239.25 260.536 237.757 261.184 236.444 262.085C235.124 262.989 234.059 264.228 233.204 265.585C231.51 268.329 230.68 271.57 230.473 274.791C230.383 276.401 230.424 278.046 230.826 279.575C231.018 280.306 231.364 281.13 231.867 281.36C231.932 281.367 231.975 281.401 232.053 281.403C232.131 281.397 232.215 281.414 232.289 281.395C232.441 281.371 232.589 281.33 232.715 281.239C232.977 281.075 233.185 280.782 233.324 280.447C233.604 279.769 233.656 278.965 233.585 278.19C233.507 277.41 233.308 276.636 232.985 275.918C232.354 274.482 231.234 273.242 229.784 272.634C228.341 272.021 226.652 271.972 225.154 272.493C223.649 273.033 222.349 274.07 221.265 275.273C219.09 277.707 217.625 280.751 216.754 283.919Z" fill="#263238"/>
<path d="M143.015 304.599C143.785 303.147 144.918 301.891 146.24 300.899C147.561 299.906 149.077 299.136 150.709 298.758C152.332 298.37 154.075 298.363 155.699 298.857C157.324 299.343 158.788 300.295 159.959 301.509C161.139 302.722 162.02 304.195 162.626 305.762C163.221 307.331 163.577 309.013 163.451 310.732C163.366 311.578 163.194 312.492 162.525 313.224C162.193 313.584 161.68 313.821 161.18 313.829C160.7 313.825 160.246 313.754 159.805 313.518C159.367 313.292 159.016 312.9 158.816 312.466C158.612 312.031 158.536 311.57 158.515 311.125C158.484 310.231 158.677 309.382 158.939 308.575C159.475 306.957 160.354 305.5 161.382 304.179C162.415 302.86 163.631 301.685 164.994 300.707C167.698 298.744 171.142 297.653 174.502 298.093C176.16 298.317 177.806 298.796 179.257 299.642C180.721 300.46 181.991 301.595 183.026 302.893C184.06 304.196 184.866 305.66 185.487 307.186C186.108 308.713 186.566 310.306 186.791 311.933C186.121 308.735 184.806 305.629 182.711 303.151C181.673 301.912 180.423 300.849 179.004 300.1C177.597 299.323 176.019 298.907 174.43 298.729C171.238 298.382 168 299.399 165.425 301.305C162.853 303.197 160.748 305.837 159.685 308.824C159.434 309.569 159.259 310.348 159.282 311.098C159.3 311.842 159.562 312.557 160.159 312.859C160.441 313.021 160.823 313.084 161.157 313.09C161.48 313.081 161.767 312.952 161.998 312.714C162.464 312.228 162.663 311.433 162.735 310.67C162.86 309.111 162.537 307.498 161.98 306.008C161.415 304.514 160.575 303.121 159.49 301.955C158.407 300.791 157.042 299.883 155.533 299.389C154.025 298.887 152.372 298.845 150.802 299.178C147.66 299.846 144.749 301.811 143.015 304.599Z" fill="#263238"/>
<path d="M106.096 111.886C106.006 108.602 105.309 105.296 103.781 102.415C103.016 100.989 102.001 99.6703 100.668 98.7869C99.3379 97.9235 97.686 97.5684 96.1387 97.8189C94.585 98.0631 93.202 99.0008 92.246 100.243C91.7617 100.864 91.3826 101.567 91.1209 102.306C90.8671 103.042 90.7251 103.835 90.8352 104.56C90.8902 104.919 91.0219 105.252 91.2374 105.474C91.3395 105.593 91.4728 105.667 91.614 105.728C91.6819 105.764 91.7672 105.767 91.8415 105.792C91.9181 105.808 91.9675 105.785 92.0322 105.794C92.5756 105.69 93.1087 104.973 93.4694 104.309C94.2251 102.921 94.6576 101.332 94.9537 99.7477C95.521 96.5709 95.4891 93.2249 94.4988 90.1557C93.9929 88.634 93.2539 87.176 92.1878 85.9846C91.1272 84.7956 89.8329 83.8108 88.3247 83.2068C87.6121 82.8141 86.8236 82.625 86.056 82.3744C85.6769 82.226 85.2651 82.2196 84.8709 82.1343C84.4711 82.0824 84.0769 81.9659 83.6699 81.9778C82.0524 81.8366 80.4261 82.0704 78.8468 82.4542C75.6907 83.2913 72.7732 84.9815 70.2979 87.1465C71.4629 85.9774 72.7988 84.9831 74.2112 84.1213C75.6309 83.2738 77.1375 82.542 78.7415 82.0768C80.3463 81.6419 82.0197 81.3674 83.7003 81.4743C84.1224 81.4536 84.5334 81.5629 84.9507 81.6084C85.3625 81.6866 85.7926 81.6874 86.19 81.831C86.9944 82.0712 87.8235 82.2555 88.5729 82.6442C90.1481 83.2283 91.5781 84.2609 92.7049 85.5273C93.8508 86.7914 94.644 88.3315 95.1867 89.9259C96.2472 93.1427 96.3015 96.5932 95.7357 99.8898C95.4133 101.535 94.964 103.17 94.1317 104.68C93.9274 105.058 93.6753 105.421 93.3808 105.762C93.0656 106.083 92.7033 106.437 92.1311 106.53C91.8247 106.558 91.5749 106.508 91.3411 106.413C91.1049 106.314 90.8743 106.172 90.7051 105.979C90.35 105.6 90.1864 105.122 90.1186 104.672C89.9909 103.759 90.1704 102.885 90.4537 102.07C90.7482 101.257 91.1671 100.495 91.7018 99.8195C92.7464 98.4613 94.3161 97.4415 96.0437 97.2149C97.7554 96.9755 99.535 97.408 100.947 98.3696C102.353 99.3503 103.378 100.751 104.126 102.236C104.867 103.734 105.357 105.335 105.681 106.957C106.004 108.58 106.154 110.237 106.096 111.886Z" fill="#263238"/>
<path d="M282.308 153.513C279.094 152.835 275.716 152.74 272.558 153.554C270.993 153.966 269.474 154.645 268.303 155.735C267.154 156.826 266.423 158.35 266.305 159.914C266.18 161.481 266.769 163.045 267.754 164.264C268.244 164.88 268.841 165.413 269.497 165.84C270.153 166.258 270.892 166.582 271.623 166.644C271.985 166.674 272.339 166.623 272.605 166.466C272.744 166.395 272.848 166.283 272.94 166.16C272.991 166.102 273.014 166.02 273.056 165.954C273.089 165.884 273.078 165.829 273.103 165.769C273.129 165.216 272.555 164.531 271.994 164.026C270.82 162.968 269.376 162.176 267.905 161.518C264.949 160.226 261.687 159.476 258.471 159.722C256.874 159.859 255.283 160.238 253.876 160.996C252.472 161.749 251.213 162.779 250.273 164.104C249.725 164.706 249.357 165.428 248.935 166.116C248.702 166.45 248.6 166.848 248.425 167.212C248.281 167.589 248.076 167.945 247.994 168.343C247.479 169.883 247.326 171.519 247.331 173.144C247.409 176.408 248.372 179.639 249.899 182.552C249.034 181.147 248.379 179.616 247.871 178.041C247.378 176.463 247.018 174.827 246.94 173.158C246.892 171.496 247.015 169.805 247.512 168.195C247.59 167.78 247.792 167.405 247.934 167.01C248.106 166.628 248.207 166.21 248.44 165.857C248.861 165.131 249.234 164.368 249.787 163.73C250.723 162.334 252.06 161.185 253.554 160.385C255.051 159.565 256.733 159.153 258.411 158.998C261.786 158.717 265.155 159.469 268.228 160.788C269.753 161.486 271.237 162.304 272.511 163.466C272.831 163.753 273.125 164.082 273.388 164.45C273.627 164.83 273.885 165.265 273.843 165.844C273.799 166.148 273.692 166.38 273.546 166.585C273.395 166.792 273.202 166.982 272.975 167.102C272.524 167.359 272.021 167.406 271.567 167.367C270.649 167.278 269.84 166.899 269.114 166.434C268.393 165.958 267.749 165.373 267.217 164.695C266.139 163.363 265.514 161.598 265.696 159.866C265.863 158.146 266.7 156.516 267.963 155.367C269.244 154.229 270.845 153.559 272.464 153.179C274.094 152.808 275.765 152.704 277.418 152.768C279.072 152.831 280.719 153.072 282.308 153.513Z" fill="#263238"/>
<path d="M232.904 101.883C232.358 99.9921 232.285 97.97 232.592 96.0173C232.898 94.0646 233.559 92.1438 234.64 90.4616C235.704 88.7778 237.189 87.3215 238.986 86.3934C240.777 85.4582 242.818 85.052 244.828 85.1134C246.843 85.1677 248.823 85.6896 250.647 86.5211C252.462 87.3646 254.168 88.5041 255.489 90.0714C256.119 90.8606 256.727 91.7807 256.763 92.9362C256.779 93.5068 256.548 94.1165 256.139 94.5298C255.733 94.9176 255.29 95.2329 254.732 95.3948C254.183 95.5632 253.573 95.5217 253.05 95.3222C252.524 95.1243 252.082 94.7995 251.698 94.4404C250.932 93.7111 250.391 92.8285 249.943 91.922C249.054 90.0985 248.586 88.1211 248.361 86.1365C248.142 84.1486 248.198 82.1305 248.544 80.1586C249.211 76.2261 251.238 72.4284 254.466 69.9961C256.066 68.8015 257.867 67.8343 259.811 67.342C261.742 66.8145 263.774 66.7211 265.743 66.9613C267.717 67.2055 269.632 67.7777 271.443 68.5589C273.253 69.3409 274.982 70.3161 276.542 71.5131C273.3 69.3202 269.574 67.7497 265.699 67.3667C263.77 67.1704 261.802 67.3021 259.951 67.8471C258.087 68.3578 256.377 69.3226 254.859 70.502C253.359 71.703 252.082 73.1801 251.149 74.8599C250.209 76.5357 249.594 78.3879 249.269 80.2855C248.648 84.0744 249.049 88.1099 250.649 91.5788C251.062 92.4319 251.567 93.2514 252.226 93.8842C252.872 94.5147 253.725 94.928 254.524 94.6751C254.917 94.5729 255.303 94.3024 255.605 94.0167C255.887 93.727 256.034 93.352 256.029 92.9394C256.019 92.1015 255.514 91.2468 254.931 90.5278C253.722 89.0755 252.089 87.9623 250.355 87.1499C248.613 86.3415 246.718 85.8476 244.804 85.7606C242.892 85.6728 240.953 86.0407 239.238 86.8906C237.519 87.7317 236.065 89.0891 234.999 90.6962C232.87 93.9154 232.035 98.0466 232.904 101.883Z" fill="#263238"/>
<path d="M140.347 304.775C138.559 304.212 136.654 305.205 136.091 306.991C135.526 308.781 136.52 310.684 138.308 311.249C140.095 311.812 141.998 310.82 142.562 309.032C143.125 307.245 142.134 305.338 140.347 304.775ZM142.168 308.907C141.673 310.478 140.001 311.349 138.432 310.854C136.862 310.36 135.991 308.688 136.486 307.117C136.981 305.547 138.653 304.676 140.224 305.171C141.792 305.665 142.663 307.337 142.168 308.907ZM140.347 304.775C138.559 304.212 136.654 305.205 136.091 306.991C135.526 308.781 136.52 310.684 138.308 311.249C140.095 311.812 141.998 310.82 142.562 309.032C143.125 307.245 142.134 305.338 140.347 304.775ZM142.168 308.907C141.673 310.478 140.001 311.349 138.432 310.854C136.862 310.36 135.991 308.688 136.486 307.117C136.981 305.547 138.653 304.676 140.224 305.171C141.792 305.665 142.663 307.337 142.168 308.907ZM140.347 304.775C138.559 304.212 136.654 305.205 136.091 306.991C135.526 308.781 136.52 310.684 138.308 311.249C140.095 311.812 141.998 310.82 142.562 309.032C143.125 307.245 142.134 305.338 140.347 304.775ZM142.168 308.907C141.673 310.478 140.001 311.349 138.432 310.854C136.862 310.36 135.991 308.688 136.486 307.117C136.981 305.547 138.653 304.676 140.224 305.171C141.792 305.665 142.663 307.337 142.168 308.907ZM141.478 301.19C137.707 300.002 133.693 302.097 132.505 305.862C131.319 309.629 133.409 313.647 137.178 314.833C140.943 316.019 144.96 313.928 146.147 310.16C147.335 306.396 145.244 302.376 141.478 301.19ZM143.066 309.189C142.416 311.253 140.211 312.402 138.15 311.752C136.088 311.103 134.938 308.897 135.589 306.834C136.239 304.771 138.446 303.624 140.507 304.273C142.566 304.922 143.716 307.128 143.066 309.189ZM142.562 309.031C143.125 307.244 142.134 305.338 140.347 304.774C138.559 304.211 136.654 305.204 136.091 306.991C135.526 308.78 136.52 310.684 138.308 311.248C140.095 311.811 141.998 310.819 142.562 309.031ZM142.168 308.907C141.673 310.478 140.001 311.349 138.432 310.854C136.862 310.36 135.991 308.688 136.486 307.117C136.981 305.547 138.653 304.676 140.224 305.171C141.792 305.665 142.663 307.337 142.168 308.907ZM140.347 304.775C138.559 304.212 136.654 305.205 136.091 306.991C135.526 308.781 136.52 310.684 138.308 311.249C140.095 311.812 141.998 310.82 142.562 309.032C143.125 307.245 142.134 305.338 140.347 304.775ZM142.168 308.907C141.673 310.478 140.001 311.349 138.432 310.854C136.862 310.36 135.991 308.688 136.486 307.117C136.981 305.547 138.653 304.676 140.224 305.171C141.792 305.665 142.663 307.337 142.168 308.907ZM140.347 304.775C138.559 304.212 136.654 305.205 136.091 306.991C135.526 308.781 136.52 310.684 138.308 311.249C140.095 311.812 141.998 310.82 142.562 309.032C143.125 307.245 142.134 305.338 140.347 304.775ZM142.168 308.907C141.673 310.478 140.001 311.349 138.432 310.854C136.862 310.36 135.991 308.688 136.486 307.117C136.981 305.547 138.653 304.676 140.224 305.171C141.792 305.665 142.663 307.337 142.168 308.907Z" fill="#455A64"/>
<path d="M138.578 314.961L135.955 314.135L135.515 316.037L137.848 316.772L138.578 314.961Z" fill="#455A64"/>
<path d="M133.864 312.506L132.594 310.066L130.938 311.101L132.067 313.27L133.864 312.506Z" fill="#455A64"/>
<path d="M132.268 307.436L133.095 304.813L131.192 304.373L130.458 306.706L132.268 307.436Z" fill="#455A64"/>
<path d="M134.725 302.722L137.164 301.452L136.13 299.795L133.961 300.925L134.725 302.722Z" fill="#455A64"/>
<path d="M139.795 301.125L142.418 301.951L142.858 300.049L140.525 299.314L139.795 301.125Z" fill="#455A64"/>
<path d="M144.509 303.582L145.779 306.022L147.436 304.987L146.306 302.818L144.509 303.582Z" fill="#455A64"/>
<path d="M146.106 308.652L145.279 311.275L147.181 311.716L147.916 309.383L146.106 308.652Z" fill="#455A64"/>
<path d="M143.648 313.365L141.209 314.636L142.243 316.292L144.413 315.162L143.648 313.365Z" fill="#455A64"/>
<path d="M272.656 281.973C276.253 277.126 275.24 270.278 270.393 266.682C265.544 263.083 258.697 264.097 255.1 268.943C251.502 273.792 252.515 280.639 257.364 284.238C262.21 287.835 269.058 286.822 272.656 281.973ZM267.977 278.501C266.296 280.766 263.1 281.24 260.836 279.56C258.57 277.878 258.097 274.682 259.779 272.416C261.458 270.152 264.655 269.679 266.921 271.36C269.184 273.041 269.657 276.237 267.977 278.501Z" fill="#263238"/>
<path d="M259.32 285.126L255.945 282.621L254.358 285.149L257.36 287.377L259.32 285.126Z" fill="#263238"/>
<path d="M253.74 279.221L253.124 275.062L250.214 275.728L250.762 279.427L253.74 279.221Z" fill="#263238"/>
<path d="M253.969 271.099L256.475 267.723L253.947 266.137L251.719 269.139L253.969 271.099Z" fill="#263238"/>
<path d="M259.875 265.518L264.033 264.902L263.368 261.992L259.669 262.54L259.875 265.518Z" fill="#263238"/>
<path d="M267.997 265.746L271.373 268.252L272.959 265.724L269.957 263.496L267.997 265.746Z" fill="#263238"/>
<path d="M273.578 271.653L274.193 275.812L277.102 275.146L276.555 271.447L273.578 271.653Z" fill="#263238"/>
<path d="M273.348 279.775L270.843 283.151L273.371 284.737L275.599 281.735L273.348 279.775Z" fill="#263238"/>
<path d="M267.443 285.355L263.284 285.971L263.95 288.88L267.648 288.334L267.443 285.355Z" fill="#263238"/>
<path d="M259.962 275.984L262.284 278.913L265.982 278.364L267.355 274.89L265.035 271.963L261.337 272.509L259.962 275.984ZM264.364 274.485C264.89 274.876 265 275.616 264.609 276.143C264.219 276.667 263.478 276.779 262.951 276.388C262.427 275.998 262.317 275.255 262.706 274.73C263.097 274.204 263.839 274.097 264.364 274.485Z" fill="#263238"/>
<path d="M280.85 69.1094C279.285 68.6163 277.618 69.4853 277.125 71.0486C276.632 72.6151 277.501 74.2805 279.066 74.7737C280.629 75.2668 282.295 74.3986 282.788 72.8337C283.281 71.2704 282.414 69.6018 280.85 69.1094ZM282.444 72.7244C282.011 74.0993 280.548 74.8614 279.174 74.4289C277.8 73.9964 277.038 72.5329 277.471 71.1579C277.903 69.7846 279.367 69.0225 280.742 69.455C282.114 69.8875 282.877 71.351 282.444 72.7244ZM280.85 69.1094C279.285 68.6163 277.618 69.4853 277.125 71.0486C276.632 72.6151 277.501 74.2805 279.066 74.7737C280.629 75.2668 282.295 74.3986 282.788 72.8337C283.281 71.2704 282.414 69.6018 280.85 69.1094ZM282.444 72.7244C282.011 74.0993 280.548 74.8614 279.174 74.4289C277.8 73.9964 277.038 72.5329 277.471 71.1579C277.903 69.7846 279.367 69.0225 280.742 69.455C282.114 69.8875 282.877 71.351 282.444 72.7244ZM280.85 69.1094C279.285 68.6163 277.618 69.4853 277.125 71.0486C276.632 72.6151 277.501 74.2805 279.066 74.7737C280.629 75.2668 282.295 74.3986 282.788 72.8337C283.281 71.2704 282.414 69.6018 280.85 69.1094ZM282.444 72.7244C282.011 74.0993 280.548 74.8614 279.174 74.4289C277.8 73.9964 277.038 72.5329 277.471 71.1579C277.903 69.7846 279.367 69.0225 280.742 69.455C282.114 69.8875 282.877 71.351 282.444 72.7244ZM281.841 65.9725C278.542 64.9335 275.028 66.7665 273.989 70.0607C272.951 73.3564 274.78 76.8724 278.078 77.9106C281.373 78.9488 284.888 77.1182 285.926 73.8216C286.965 70.5275 285.135 67.0099 281.841 65.9725ZM283.23 72.9718C282.661 74.7768 280.731 75.7831 278.927 75.2141C277.123 74.6452 276.117 72.7156 276.686 70.9105C277.255 69.1055 279.186 68.1008 280.99 68.6698C282.793 69.2379 283.798 71.1675 283.23 72.9718ZM282.789 72.8337C283.282 71.2704 282.414 69.6018 280.851 69.1094C279.286 68.6163 277.619 69.4853 277.126 71.0486C276.633 72.6151 277.502 74.2805 279.067 74.7737C280.63 75.266 282.295 74.3986 282.789 72.8337ZM282.444 72.7244C282.011 74.0993 280.548 74.8614 279.174 74.4289C277.8 73.9964 277.038 72.5329 277.471 71.1579C277.903 69.7846 279.367 69.0225 280.742 69.455C282.114 69.8875 282.877 71.351 282.444 72.7244ZM280.85 69.1094C279.285 68.6163 277.618 69.4853 277.125 71.0486C276.632 72.6151 277.501 74.2805 279.066 74.7737C280.629 75.2668 282.295 74.3986 282.788 72.8337C283.281 71.2704 282.414 69.6018 280.85 69.1094ZM282.444 72.7244C282.011 74.0993 280.548 74.8614 279.174 74.4289C277.8 73.9964 277.038 72.5329 277.471 71.1579C277.903 69.7846 279.367 69.0225 280.742 69.455C282.114 69.8875 282.877 71.351 282.444 72.7244ZM280.85 69.1094C279.285 68.6163 277.618 69.4853 277.125 71.0486C276.632 72.6151 277.501 74.2805 279.066 74.7737C280.629 75.2668 282.295 74.3986 282.788 72.8337C283.281 71.2704 282.414 69.6018 280.85 69.1094ZM282.444 72.7244C282.011 74.0993 280.548 74.8614 279.174 74.4289C277.8 73.9964 277.038 72.5329 277.471 71.1579C277.903 69.7846 279.367 69.0225 280.742 69.455C282.114 69.8875 282.877 71.351 282.444 72.7244Z" fill="#263238"/>
<path d="M279.302 78.0238L277.007 77.3008L276.623 78.9654L278.664 79.6086L279.302 78.0238Z" fill="#263238"/>
<path d="M275.177 75.8741L274.066 73.7402L272.617 74.6444L273.605 76.5428L275.177 75.8741Z" fill="#263238"/>
<path d="M273.781 71.4355L274.505 69.1405L272.84 68.7559L272.197 70.7971L273.781 71.4355Z" fill="#263238"/>
<path d="M275.93 67.3108L278.065 66.1992L277.16 64.75L275.262 65.7387L275.93 67.3108Z" fill="#263238"/>
<path d="M280.368 65.9149L282.663 66.6379L283.048 64.9733L281.007 64.3301L280.368 65.9149Z" fill="#263238"/>
<path d="M284.492 68.0652L285.604 70.1999L287.053 69.2949L286.064 67.3965L284.492 68.0652Z" fill="#263238"/>
<path d="M285.889 72.502L285.166 74.797L286.831 75.1824L287.474 73.1412L285.889 72.502Z" fill="#263238"/>
<path d="M283.739 76.627L281.605 77.7386L282.509 79.1877L284.408 78.199L283.739 76.627Z" fill="#263238"/>
<path d="M250.355 183.115C248.79 182.622 247.123 183.491 246.629 185.054C246.136 186.621 247.005 188.286 248.57 188.78C250.133 189.273 251.799 188.404 252.292 186.84C252.784 185.276 251.918 183.608 250.355 183.115ZM251.947 186.73C251.514 188.105 250.051 188.867 248.678 188.435C247.305 188.002 246.542 186.539 246.975 185.164C247.408 183.79 248.871 183.028 250.246 183.461C251.618 183.893 252.381 185.357 251.947 186.73ZM250.355 183.115C248.79 182.622 247.123 183.491 246.629 185.054C246.136 186.621 247.005 188.286 248.57 188.78C250.133 189.273 251.799 188.404 252.292 186.84C252.784 185.276 251.918 183.608 250.355 183.115ZM251.947 186.73C251.514 188.105 250.051 188.867 248.678 188.435C247.305 188.002 246.542 186.539 246.975 185.164C247.408 183.79 248.871 183.028 250.246 183.461C251.618 183.893 252.381 185.357 251.947 186.73ZM250.355 183.115C248.79 182.622 247.123 183.491 246.629 185.054C246.136 186.621 247.005 188.286 248.57 188.78C250.133 189.273 251.799 188.404 252.292 186.84C252.784 185.276 251.918 183.608 250.355 183.115ZM251.947 186.73C251.514 188.105 250.051 188.867 248.678 188.435C247.305 188.002 246.542 186.539 246.975 185.164C247.408 183.79 248.871 183.028 250.246 183.461C251.618 183.893 252.381 185.357 251.947 186.73ZM251.344 179.978C248.045 178.939 244.531 180.772 243.493 184.067C242.454 187.363 244.283 190.878 247.581 191.916C250.876 192.955 254.392 191.124 255.43 187.827C256.469 184.533 254.638 181.016 251.344 179.978ZM252.733 186.978C252.164 188.783 250.235 189.789 248.431 189.22C246.627 188.652 245.621 186.721 246.19 184.916C246.759 183.111 248.69 182.107 250.493 182.676C252.296 183.244 253.302 185.173 252.733 186.978ZM252.292 186.84C252.784 185.276 251.918 183.608 250.355 183.115C248.79 182.622 247.123 183.491 246.629 185.054C246.136 186.621 247.005 188.286 248.57 188.78C250.133 189.273 251.799 188.404 252.292 186.84ZM251.947 186.73C251.514 188.105 250.051 188.867 248.678 188.435C247.305 188.002 246.542 186.539 246.975 185.164C247.408 183.79 248.871 183.028 250.246 183.461C251.618 183.893 252.381 185.357 251.947 186.73ZM250.355 183.115C248.79 182.622 247.123 183.491 246.629 185.054C246.136 186.621 247.005 188.286 248.57 188.78C250.133 189.273 251.799 188.404 252.292 186.84C252.784 185.276 251.918 183.608 250.355 183.115ZM251.947 186.73C251.514 188.105 250.051 188.867 248.678 188.435C247.305 188.002 246.542 186.539 246.975 185.164C247.408 183.79 248.871 183.028 250.246 183.461C251.618 183.893 252.381 185.357 251.947 186.73ZM250.355 183.115C248.79 182.622 247.123 183.491 246.629 185.054C246.136 186.621 247.005 188.286 248.57 188.78C250.133 189.273 251.799 188.404 252.292 186.84C252.784 185.276 251.918 183.608 250.355 183.115ZM251.947 186.73C251.514 188.105 250.051 188.867 248.678 188.435C247.305 188.002 246.542 186.539 246.975 185.164C247.408 183.79 248.871 183.028 250.246 183.461C251.618 183.893 252.381 185.357 251.947 186.73Z" fill="#263238"/>
<path d="M248.806 192.03L246.511 191.307L246.126 192.971L248.167 193.614L248.806 192.03Z" fill="#263238"/>
<path d="M244.681 189.88L243.57 187.746L242.12 188.65L243.109 190.549L244.681 189.88Z" fill="#263238"/>
<path d="M243.284 185.443L244.008 183.148L242.343 182.764L241.7 184.805L243.284 185.443Z" fill="#263238"/>
<path d="M245.434 181.319L247.569 180.208L246.664 178.758L244.765 179.747L245.434 181.319Z" fill="#263238"/>
<path d="M249.871 179.922L252.166 180.646L252.552 178.981L250.51 178.338L249.871 179.922Z" fill="#263238"/>
<path d="M253.996 182.071L255.107 184.206L256.556 183.301L255.568 181.402L253.996 182.071Z" fill="#263238"/>
<path d="M255.392 186.508L254.669 188.803L256.334 189.188L256.977 187.147L255.392 186.508Z" fill="#263238"/>
<path d="M253.242 190.633L251.108 191.744L252.013 193.194L253.911 192.205L253.242 190.633Z" fill="#263238"/>
<path d="M75.8267 93.3607C77.0573 88.311 73.9602 83.2189 68.9105 81.9884C63.8591 80.7579 58.7663 83.8549 57.5358 88.9047C56.3053 93.956 59.4023 99.0489 64.4536 100.279C69.5042 101.509 74.5962 98.4121 75.8267 93.3607ZM70.9526 92.1733C70.3772 94.5338 68.0008 95.9798 65.6419 95.4044C63.2814 94.829 61.8354 92.4526 62.4108 90.0921C62.9853 87.7332 65.3626 86.2881 67.7231 86.8634C70.0811 87.438 71.5271 89.8144 70.9526 92.1733Z" fill="#263238"/>
<path d="M66.304 100.328L62.7873 99.4707L62.3755 102.008L65.5028 102.77L66.304 100.328Z" fill="#263238"/>
<path d="M59.8992 97.513L58.0183 94.4199L55.9331 95.9226L57.6057 98.6733L59.8992 97.513Z" fill="#263238"/>
<path d="M57.3608 90.9911L58.2179 87.4751L55.681 87.0625L54.9189 90.1907L57.3608 90.9911Z" fill="#263238"/>
<path d="M60.1769 84.5872L63.2691 82.7063L61.7673 80.6211L59.0166 82.2945L60.1769 84.5872Z" fill="#263238"/>
<path d="M66.6968 82.0493L70.2136 82.9063L70.6261 80.3695L67.498 79.6074L66.6968 82.0493Z" fill="#263238"/>
<path d="M73.1016 84.8654L74.9824 87.9584L77.0676 86.4558L75.395 83.7051L73.1016 84.8654Z" fill="#263238"/>
<path d="M75.6398 91.3848L74.7827 94.9016L77.3196 95.3133L78.0816 92.1852L75.6398 91.3848Z" fill="#263238"/>
<path d="M72.8237 97.7891L69.7314 99.67L71.2341 101.755L73.9848 100.082L72.8237 97.7891Z" fill="#263238"/>
<path d="M63.751 92.8612L66.5735 94.4069L69.3226 92.7327L69.2484 89.5176L66.4275 87.9727L63.6768 89.6437L63.751 92.8612ZM66.7411 90.1983C67.2901 90.3315 67.6245 90.8822 67.4904 91.4312C67.3571 91.9778 66.8065 92.3146 66.2575 92.1805C65.7109 92.0472 65.3749 91.4942 65.5082 90.9476C65.6422 90.3994 66.1945 90.065 66.7411 90.1983Z" fill="#263238"/>
<path d="M288.549 190.672C286.402 187.403 285.196 183.727 285.196 179.84C285.196 166.118 300.264 154.992 318.841 154.992C337.418 154.992 352.473 166.119 352.473 179.84C352.473 193.562 337.418 204.688 318.841 204.688C309.833 204.688 301.667 202.079 295.634 197.814L284.045 200.761L288.549 190.672Z" fill="white"/>
<path d="M288.549 190.672C286.523 187.655 285.254 184.092 285.121 180.431C285.02 176.779 285.92 173.083 287.796 169.922C289.63 166.738 292.243 164.054 295.196 161.894C298.152 159.723 301.48 158.083 304.954 156.93C308.429 155.769 312.049 155.073 315.701 154.781C319.358 154.514 323.04 154.74 326.654 155.338C327.552 155.522 328.463 155.645 329.35 155.881L332.007 156.596L334.603 157.513C335.466 157.824 336.287 158.244 337.131 158.605C340.444 160.181 343.551 162.246 346.164 164.853C348.77 167.45 350.872 170.623 351.98 174.173C353.086 177.711 353.167 181.594 352.09 185.151C351.043 188.721 348.99 191.926 346.419 194.557C343.842 197.199 340.76 199.301 337.464 200.913C334.168 202.544 330.617 203.606 327.016 204.26C323.408 204.879 319.727 205.144 316.073 204.887C312.421 204.656 308.792 203.989 305.316 202.841C301.844 201.698 298.503 200.101 295.53 197.963L295.68 197.991L284.067 200.846L283.892 200.889L283.966 200.726L288.549 190.672ZM288.549 190.672L284.125 200.795L284.023 200.675L295.589 197.637L295.669 197.616L295.74 197.665C301.707 201.784 308.904 203.928 316.108 204.314C319.718 204.536 323.349 204.241 326.895 203.6C330.438 202.942 333.929 201.889 337.156 200.279C340.384 198.689 343.392 196.622 345.891 194.044C348.384 191.476 350.355 188.37 351.352 184.937C352.379 181.516 352.281 177.8 351.22 174.407C350.166 170.997 348.151 167.924 345.623 165.391C343.091 162.85 340.062 160.819 336.818 159.265C335.991 158.909 335.189 158.493 334.342 158.186L331.796 157.278L329.185 156.568C328.315 156.333 327.418 156.211 326.535 156.027C322.98 155.423 319.353 155.205 315.747 155.436C312.146 155.692 308.569 156.347 305.133 157.461C301.697 158.568 298.401 160.156 295.47 162.27C292.539 164.371 289.956 166.997 288.094 170.095C286.198 173.178 285.252 176.804 285.294 180.426C285.366 184.054 286.57 187.623 288.549 190.672Z" fill="#263238"/>
<path d="M301.533 183.908V185.755H294.004V174.912H301.396V176.76H296.112V179.371H300.678V181.082H296.112V183.907L301.533 183.908Z" fill="#249FFF"/>
<path d="M303.183 185.757V174.914H307.979C308.478 174.914 308.938 175.019 309.36 175.228C309.783 175.437 310.146 175.711 310.452 176.052C310.758 176.394 310.997 176.781 311.17 177.213C311.343 177.646 311.429 178.081 311.429 178.519C311.429 179.221 311.253 179.86 310.902 180.435C310.552 181.011 310.075 181.426 309.475 181.68L311.949 185.757H309.581L307.368 182.122H305.291V185.757H303.183ZM305.291 180.274H307.933C308.126 180.274 308.307 180.229 308.475 180.137C308.643 180.045 308.787 179.921 308.91 179.763C309.032 179.606 309.129 179.42 309.2 179.206C309.272 178.992 309.308 178.763 309.308 178.519C309.308 178.264 309.266 178.03 309.186 177.816C309.103 177.603 308.995 177.417 308.857 177.259C308.72 177.101 308.562 176.979 308.384 176.892C308.205 176.806 308.025 176.762 307.841 176.762H305.291V180.274H305.291Z" fill="#249FFF"/>
<path d="M313.338 185.757V174.914H318.134C318.633 174.914 319.093 175.019 319.515 175.228C319.937 175.437 320.301 175.711 320.607 176.052C320.913 176.394 321.152 176.781 321.324 177.213C321.497 177.646 321.584 178.081 321.584 178.519C321.584 179.221 321.408 179.86 321.057 180.435C320.707 181.011 320.23 181.426 319.629 181.68L322.103 185.757H319.735L317.521 182.122H315.445V185.757H313.338ZM315.446 180.274H318.088C318.281 180.274 318.462 180.229 318.629 180.137C318.798 180.045 318.942 179.921 319.065 179.763C319.187 179.606 319.284 179.42 319.355 179.206C319.427 178.992 319.463 178.763 319.463 178.519C319.463 178.264 319.421 178.03 319.34 177.816C319.258 177.603 319.15 177.417 319.012 177.259C318.874 177.101 318.716 176.979 318.538 176.892C318.36 176.806 318.179 176.762 317.996 176.762H315.446V180.274Z" fill="#249FFF"/>
<path d="M328.121 185.833C327.327 185.833 326.608 185.678 325.96 185.368C325.313 185.057 324.759 184.645 324.296 184.131C323.832 183.617 323.474 183.029 323.219 182.367C322.965 181.705 322.838 181.028 322.838 180.336C322.838 179.613 322.973 178.921 323.242 178.259C323.512 177.597 323.884 177.012 324.356 176.503C324.831 175.993 325.393 175.589 326.044 175.289C326.695 174.989 327.403 174.838 328.167 174.838C328.951 174.838 329.666 174.998 330.313 175.319C330.96 175.64 331.512 176.06 331.969 176.579C332.427 177.098 332.784 177.689 333.039 178.351C333.293 179.013 333.42 179.684 333.42 180.366C333.42 181.089 333.288 181.779 333.024 182.436C332.759 183.092 332.392 183.673 331.924 184.177C331.456 184.681 330.895 185.083 330.244 185.383C329.592 185.683 328.885 185.833 328.121 185.833ZM324.975 180.335C324.975 180.804 325.046 181.257 325.189 181.694C325.332 182.132 325.538 182.519 325.807 182.855C326.077 183.191 326.408 183.461 326.8 183.665C327.192 183.868 327.637 183.97 328.137 183.97C328.646 183.97 329.096 183.866 329.488 183.657C329.879 183.449 330.21 183.171 330.48 182.825C330.75 182.479 330.954 182.089 331.092 181.657C331.229 181.224 331.297 180.784 331.297 180.336C331.297 179.868 331.223 179.415 331.076 178.977C330.929 178.54 330.721 178.152 330.451 177.816C330.18 177.48 329.85 177.213 329.458 177.015C329.066 176.816 328.626 176.716 328.137 176.716C327.628 176.716 327.175 176.821 326.778 177.03C326.381 177.239 326.05 177.514 325.786 177.854C325.521 178.196 325.32 178.583 325.182 179.015C325.044 179.447 324.975 179.888 324.975 180.335Z" fill="#249FFF"/>
<path d="M335.04 185.757V174.914H339.836C340.334 174.914 340.795 175.019 341.217 175.228C341.639 175.437 342.003 175.711 342.309 176.052C342.614 176.394 342.854 176.781 343.026 177.213C343.199 177.646 343.285 178.081 343.285 178.519C343.285 179.221 343.11 179.86 342.759 180.435C342.408 181.011 341.932 181.426 341.331 181.68L343.806 185.757H341.438L339.224 182.122H337.147V185.757H335.04ZM337.147 180.274H339.789C339.982 180.274 340.164 180.229 340.331 180.137C340.499 180.045 340.645 179.921 340.767 179.763C340.889 179.606 340.985 179.42 341.056 179.206C341.128 178.992 341.164 178.763 341.164 178.519C341.164 178.264 341.123 178.03 341.042 177.816C340.96 177.603 340.851 177.417 340.713 177.259C340.576 177.101 340.418 176.979 340.24 176.892C340.061 176.806 339.881 176.762 339.697 176.762H337.148V180.274H337.147Z" fill="#249FFF"/>
<ellipse cx="359.5" cy="35.9536" rx="31.5" ry="33.9536" fill="#053365"/>
</svg>
