<svg width="20" height="20" viewBox="0 0 20 20" fill="none" xmlns="http://www.w3.org/2000/svg">
<path d="M10.1064 8.45774C9.60514 8.45774 9.13573 8.65221 8.78031 9.00763C8.42658 9.36304 8.23043 9.83245 8.23043 10.3337C8.23043 10.835 8.42658 11.3044 8.78031 11.6598C9.13573 12.0135 9.60514 12.2097 10.1064 12.2097C10.6077 12.2097 11.0771 12.0135 11.4325 11.6598C11.7862 11.3044 11.9824 10.835 11.9824 10.3337C11.9824 9.83245 11.7862 9.36304 11.4325 9.00763C11.2589 8.8327 11.0523 8.69401 10.8246 8.59961C10.597 8.50521 10.3528 8.45699 10.1064 8.45774ZM17.0185 12.4058L15.9221 11.4687C15.974 11.1502 16.0009 10.8249 16.0009 10.5014C16.0009 10.1778 15.974 9.85089 15.9221 9.53404L17.0185 8.59689C17.1013 8.52599 17.1606 8.43155 17.1884 8.32614C17.2163 8.22073 17.2114 8.10933 17.1744 8.00677L17.1593 7.96319C16.8576 7.1194 16.4054 6.33727 15.8248 5.65469L15.7947 5.61948C15.7242 5.53658 15.6302 5.47699 15.5251 5.44856C15.4201 5.42013 15.3089 5.4242 15.2062 5.46022L13.8449 5.94472C13.342 5.53231 12.782 5.20707 12.1752 4.98075L11.912 3.55743C11.8921 3.4502 11.8401 3.35156 11.7628 3.2746C11.6856 3.19764 11.5867 3.14601 11.4794 3.12657L11.4342 3.11819C10.5624 2.9606 9.6437 2.9606 8.77193 3.11819L8.72667 3.12657C8.61937 3.14601 8.52052 3.19764 8.44327 3.2746C8.36601 3.35156 8.314 3.4502 8.29414 3.55743L8.02926 4.98745C7.42812 5.21558 6.86813 5.54003 6.37123 5.94807L4.99988 5.46022C4.89722 5.42391 4.78595 5.4197 4.68084 5.44815C4.57573 5.47659 4.48177 5.53635 4.41144 5.61948L4.38126 5.65469C3.80169 6.338 3.34968 7.11993 3.04679 7.96319L3.0317 8.00677C2.95626 8.21633 3.01829 8.45104 3.18762 8.59689L4.29744 9.5441C4.24547 9.85927 4.22032 10.1812 4.22032 10.4997C4.22032 10.8216 4.24547 11.1434 4.29744 11.4553L3.19097 12.4025C3.10814 12.4734 3.04886 12.5678 3.02101 12.6732C2.99316 12.7786 2.99806 12.89 3.03506 12.9926L3.05014 13.0362C3.35359 13.8794 3.8012 14.659 4.38461 15.3447L4.41479 15.3799C4.48529 15.4628 4.57926 15.5224 4.6843 15.5508C4.78935 15.5792 4.90054 15.5752 5.00323 15.5391L6.37458 15.0513C6.87417 15.462 7.43076 15.7873 8.03261 16.0119L8.29749 17.4419C8.31735 17.5492 8.36936 17.6478 8.44662 17.7248C8.52388 17.8017 8.62272 17.8533 8.73002 17.8728L8.77529 17.8812C9.65562 18.0396 10.5572 18.0396 11.4375 17.8812L11.4828 17.8728C11.5901 17.8533 11.6889 17.8017 11.7662 17.7248C11.8434 17.6478 11.8955 17.5492 11.9153 17.4419L12.1785 16.0186C12.7854 15.7906 13.3453 15.4671 13.8483 15.0546L15.2096 15.5391C15.3122 15.5755 15.4235 15.5797 15.5286 15.5512C15.6337 15.5228 15.7277 15.463 15.798 15.3799L15.8282 15.3447C16.4116 14.6556 16.8592 13.8794 17.1627 13.0362L17.1777 12.9926C17.2498 12.7847 17.1878 12.5517 17.0185 12.4058ZM10.1064 13.2809C8.47855 13.2809 7.15917 11.9616 7.15917 10.3337C7.15917 8.70586 8.47855 7.38648 10.1064 7.38648C11.7343 7.38648 13.0536 8.70586 13.0536 10.3337C13.0536 11.9616 11.7343 13.2809 10.1064 13.2809Z" fill="white"/>
</svg>
