<svg width="20" height="20" viewBox="0 0 20 20" fill="none" xmlns="http://www.w3.org/2000/svg">
<path fill-rule="evenodd" clip-rule="evenodd" d="M2 9.5C2 5.35786 5.35786 2 9.5 2C13.6421 2 17 5.35786 17 9.5C17 13.6421 13.6421 17 9.5 17C5.35786 17 2 13.6421 2 9.5ZM9.5 7.25C9.27612 7.25 9.0758 7.34717 8.93727 7.50412C8.66322 7.81467 8.18923 7.84422 7.8787 7.57012C7.56815 7.29602 7.5386 6.82207 7.8127 6.51151C8.22388 6.04565 8.82785 5.75 9.5 5.75C10.7427 5.75 11.75 6.75736 11.75 8C11.75 8.9804 11.1235 9.81283 10.25 10.1217V10.25C10.25 10.6642 9.91423 11 9.5 11C9.08577 11 8.75 10.6642 8.75 10.25V9.875C8.75 9.2213 9.26548 8.834 9.68615 8.7269C10.0108 8.64425 10.25 8.34912 10.25 8C10.25 7.58579 9.91423 7.25 9.5 7.25ZM9.5 11.75C9.08577 11.75 8.75 12.0858 8.75 12.5C8.75 12.9142 9.08577 13.25 9.5 13.25H9.5075C9.92173 13.25 10.2575 12.9142 10.2575 12.5C10.2575 12.0858 9.92173 11.75 9.5075 11.75H9.5Z" fill="white"/>
</svg>
