<svg width="20" height="20" viewBox="0 0 20 20" fill="none" xmlns="http://www.w3.org/2000/svg">
<path d="M16.0263 14.4472H10.5C9.62924 14.4472 8.92108 15.1553 8.92108 16.0261C8.92108 16.8969 9.62924 17.6051 10.5 17.6051H16.0263C16.8971 17.6051 17.6053 16.8969 17.6053 16.0261C17.6053 15.1553 16.8971 14.4472 16.0263 14.4472ZM16.0263 8.92085H10.5C9.62924 8.92085 8.92108 9.629 8.92108 10.4998C8.92108 11.3706 9.62924 12.0787 10.5 12.0787H16.0263C16.8971 12.0787 17.6053 11.3706 17.6053 10.4998C17.6053 9.629 16.8971 8.92085 16.0263 8.92085ZM16.0263 3.39453H10.5C9.62924 3.39453 8.92108 4.10269 8.92108 4.97348C8.92108 5.84427 9.62924 6.55243 10.5 6.55243H16.0263C16.8971 6.55243 17.6053 5.84427 17.6053 4.97348C17.6053 4.10269 16.8971 3.39453 16.0263 3.39453Z" fill="white"/>
<path d="M4.97368 18.0001C6.06372 18.0001 6.94737 17.1165 6.94737 16.0264C6.94737 14.9364 6.06372 14.0527 4.97368 14.0527C3.88365 14.0527 3 14.9364 3 16.0264C3 17.1165 3.88365 18.0001 4.97368 18.0001Z" fill="white"/>
<path d="M4.97368 12.4728C6.06372 12.4728 6.94737 11.5891 6.94737 10.4991C6.94737 9.40904 6.06372 8.52539 4.97368 8.52539C3.88365 8.52539 3 9.40904 3 10.4991C3 11.5891 3.88365 12.4728 4.97368 12.4728Z" fill="white"/>
<path d="M4.97368 6.94737C6.06372 6.94737 6.94737 6.06372 6.94737 4.97368C6.94737 3.88365 6.06372 3 4.97368 3C3.88365 3 3 3.88365 3 4.97368C3 6.06372 3.88365 6.94737 4.97368 6.94737Z" fill="white"/>
</svg>
