<svg width="20" height="20" viewBox="0 0 20 20" fill="none" xmlns="http://www.w3.org/2000/svg">
<path fill-rule="evenodd" clip-rule="evenodd" d="M11.2676 3C11.0974 3.29417 11 3.63571 11 4V8C11 8.21826 11.035 8.42836 11.0996 8.625H2.875V15.1875C2.87503 15.4171 2.95933 15.6388 3.11192 15.8103C3.26451 15.9819 3.47476 16.0916 3.70281 16.1184L3.8125 16.125H15.0625C15.2921 16.125 15.5138 16.0407 15.6853 15.8881C15.8569 15.7355 15.9666 15.5252 15.9934 15.2972L16 15.1875V10H17C17.3138 10 17.6107 9.92774 17.875 9.79894V16.125C17.875 16.6223 17.6775 17.0992 17.3258 17.4508C16.9742 17.8025 16.4973 18 16 18H2.875C2.37772 18 1.90081 17.8025 1.54917 17.4508C1.19754 17.0992 1 16.6223 1 16.125V4.875C1 4.37772 1.19754 3.90081 1.54917 3.54917C1.90081 3.19754 2.37772 3 2.875 3H11.2676ZM3.14959 5.14959C3.3254 4.97377 3.56386 4.875 3.8125 4.875C4.06114 4.875 4.2996 4.97377 4.47541 5.14959C4.65123 5.3254 4.75 5.56386 4.75 5.8125C4.75 6.06114 4.65123 6.2996 4.47541 6.47541C4.2996 6.65123 4.06114 6.75 3.8125 6.75C3.56386 6.75 3.3254 6.65123 3.14959 6.47541C2.97377 6.2996 2.875 6.06114 2.875 5.8125C2.875 5.56386 2.97377 5.3254 3.14959 5.14959ZM5.96209 5.14959C6.1379 4.97377 6.37636 4.875 6.625 4.875C6.87364 4.875 7.1121 4.97377 7.28791 5.14959C7.46373 5.3254 7.5625 5.56386 7.5625 5.8125C7.5625 6.06114 7.46373 6.2996 7.28791 6.47541C7.1121 6.65123 6.87364 6.75 6.625 6.75C6.37636 6.75 6.1379 6.65123 5.96209 6.47541C5.78627 6.2996 5.6875 6.06114 5.6875 5.8125C5.6875 5.56386 5.78627 5.3254 5.96209 5.14959ZM8.77459 5.14959C8.9504 4.97377 9.18886 4.875 9.4375 4.875C9.68614 4.875 9.9246 4.97377 10.1004 5.14959C10.2762 5.3254 10.375 5.56386 10.375 5.8125C10.375 6.06114 10.2762 6.2996 10.1004 6.47541C9.9246 6.65123 9.68614 6.75 9.4375 6.75C9.18886 6.75 8.9504 6.65123 8.77459 6.47541C8.59877 6.2996 8.5 6.06114 8.5 5.8125C8.5 5.56386 8.59877 5.3254 8.77459 5.14959Z" fill="white"/>
<path d="M14 8L18 4" stroke="white" stroke-linecap="round"/>
<path d="M15 4H18V7" stroke="white" stroke-linecap="round"/>
</svg>
