<svg width="20" height="20" viewBox="0 0 20 20" fill="none" xmlns="http://www.w3.org/2000/svg">
<path d="M10.5 3C9.01664 3 7.56659 3.43987 6.33323 4.26398C5.09986 5.08809 4.13856 6.25943 3.57091 7.62987C3.00325 9.00032 2.85472 10.5083 3.14411 11.9632C3.4335 13.418 4.14781 14.7544 5.1967 15.8033C6.2456 16.8522 7.58197 17.5665 9.03682 17.8559C10.4917 18.1453 11.9997 17.9968 13.3701 17.4291C14.7406 16.8614 15.9119 15.9001 16.736 14.6668C17.5601 13.4334 18 11.9834 18 10.5C18 9.51508 17.806 8.53981 17.4291 7.62987C17.0522 6.71993 16.4997 5.89314 15.8033 5.1967C15.1069 4.50026 14.2801 3.94781 13.3701 3.5709C12.4602 3.19399 11.4849 3 10.5 3ZM10.5 16.5C9.31331 16.5 8.15328 16.1481 7.16658 15.4888C6.17989 14.8295 5.41085 13.8925 4.95673 12.7961C4.5026 11.6997 4.38378 10.4933 4.61529 9.32946C4.8468 8.16557 5.41825 7.09647 6.25736 6.25736C7.09648 5.41824 8.16557 4.8468 9.32946 4.61529C10.4933 4.38378 11.6997 4.5026 12.7961 4.95672C13.8925 5.41085 14.8295 6.17988 15.4888 7.16658C16.1481 8.15327 16.5 9.31331 16.5 10.5C16.5 12.0913 15.8679 13.6174 14.7426 14.7426C13.6174 15.8679 12.0913 16.5 10.5 16.5ZM11.25 10.4475V6.75C11.25 6.55109 11.171 6.36032 11.0303 6.21967C10.8897 6.07902 10.6989 6 10.5 6C10.3011 6 10.1103 6.07902 9.96967 6.21967C9.82902 6.36032 9.75 6.55109 9.75 6.75V10.5C9.75 10.5 9.75 10.5525 9.75 10.5825C9.73155 10.735 9.76034 10.8894 9.8325 11.025L10.9575 12.975C11.057 13.1481 11.2211 13.2745 11.4138 13.3265C11.6065 13.3786 11.8119 13.352 11.985 13.2525C12.1581 13.153 12.2845 12.9889 12.3366 12.7962C12.3886 12.6035 12.362 12.3981 12.2625 12.225L11.25 10.4475Z" fill="white"/>
</svg>
