<svg width="18" height="18" viewBox="0 0 18 18" fill="none" xmlns="http://www.w3.org/2000/svg">
<g clip-path="url(#clip0_689_1291)">
<path d="M9.00005 0.519531C8.10965 0.519531 7.38525 1.24393 7.38525 2.13433C7.38525 3.02473 8.10968 3.74913 9.00005 3.74913C9.89042 3.74913 10.6148 3.02473 10.6148 2.13433C10.6148 1.24393 9.89045 0.519531 9.00005 0.519531Z" fill="white"/>
<path d="M11.6125 6.41016L10.9272 4.35447C10.8473 4.11481 10.6231 3.95312 10.3704 3.95312H7.62948C7.37681 3.95312 7.15259 4.11477 7.07268 4.35447L6.38745 6.41016C6.26081 6.79006 6.54421 7.18268 6.94425 7.18268H11.0557C11.4562 7.18268 11.739 6.78967 11.6125 6.41016Z" fill="white"/>
<path d="M2.64312 5.66797C1.75271 5.66797 1.02832 6.39236 1.02832 7.28277C1.02832 8.17317 1.75275 8.89756 2.64312 8.89756C3.53348 8.89756 4.25791 8.17317 4.25791 7.28277C4.25791 6.39236 3.53352 5.66797 2.64312 5.66797Z" fill="white"/>
<path d="M5.25557 11.5586L4.57031 9.50287C4.4904 9.26321 4.26614 9.10156 4.0135 9.10156H1.27251C1.01984 9.10156 0.795616 9.26321 0.715706 9.50291L0.0305108 11.5586C-0.096122 11.9385 0.187308 12.3311 0.587315 12.3311H4.69873C5.0992 12.3311 5.38203 11.9381 5.25557 11.5586Z" fill="white"/>
<path d="M9.00005 10.8164C8.10965 10.8164 7.38525 11.5408 7.38525 12.4312C7.38525 13.3216 8.10965 14.046 9.00005 14.046C9.89045 14.046 10.6148 13.3216 10.6148 12.4312C10.6148 11.5408 9.89045 10.8164 9.00005 10.8164Z" fill="white"/>
<path d="M11.6125 16.707L10.9272 14.6513C10.8473 14.4117 10.6231 14.25 10.3704 14.25H7.62948C7.37681 14.25 7.15258 14.4116 7.07267 14.6513L6.38744 16.707C6.26081 17.087 6.54424 17.4796 6.94425 17.4796H11.0557C11.4562 17.4795 11.739 17.0865 11.6125 16.707Z" fill="white"/>
<path d="M6.66918 2.81799C6.52813 2.52612 6.17713 2.40388 5.8853 2.54496C4.97605 2.98445 4.15181 3.62753 3.50174 4.40462C3.29375 4.65328 3.32673 5.02344 3.57536 5.23146C3.82395 5.43945 4.19411 5.40654 4.40216 5.15785C4.9462 4.50749 5.63572 3.96942 6.39619 3.60187C6.68798 3.46078 6.81026 3.10985 6.66918 2.81799Z" fill="white"/>
<path d="M15.357 5.66797C14.4666 5.66797 13.7422 6.3924 13.7422 7.28277C13.7422 8.17313 14.4666 8.89756 15.357 8.89756C16.2474 8.89756 16.9718 8.17317 16.9718 7.28277C16.9718 6.39236 16.2474 5.66797 15.357 5.66797Z" fill="white"/>
<path d="M17.9694 11.5586L17.2842 9.50291C17.2043 9.26325 16.98 9.10156 16.7274 9.10156H13.9864C13.7338 9.10156 13.5096 9.26321 13.4296 9.50287L12.7444 11.5586C12.6177 11.9385 12.9012 12.3311 13.3012 12.3311H17.4126C17.813 12.3311 18.0959 11.9381 17.9694 11.5586Z" fill="white"/>
<path d="M14.498 4.40459C13.8479 3.62749 13.0237 2.98445 12.1144 2.54493C11.8225 2.40392 11.4716 2.52612 11.3306 2.81795C11.1896 3.10978 11.3118 3.46071 11.6036 3.60179C12.3641 3.96935 13.0536 4.50742 13.5976 5.15777C13.8057 5.40644 14.1758 5.43931 14.4244 5.23139C14.673 5.02337 14.706 4.65321 14.498 4.40459Z" fill="white"/>
<path d="M14.4244 12.7676C14.1759 12.5596 13.8057 12.5926 13.5976 12.8412C13.0536 13.4916 12.3641 14.0297 11.6036 14.3972C11.3118 14.5383 11.1895 14.8892 11.3306 15.1811C11.4717 15.473 11.8227 15.5951 12.1145 15.4541C13.0237 15.0146 13.848 14.3716 14.4981 13.5945C14.706 13.3458 14.6731 12.9756 14.4244 12.7676Z" fill="white"/>
<path d="M6.3964 14.3972C5.63594 14.0296 4.94642 13.4916 4.40238 12.8412C4.19432 12.5926 3.8242 12.5597 3.57557 12.7676C3.32695 12.9756 3.29401 13.3458 3.50203 13.5944C4.1521 14.3715 4.9763 15.0145 5.88558 15.4541C6.17759 15.5952 6.52842 15.4728 6.66943 15.1811C6.81044 14.8892 6.6882 14.5383 6.3964 14.3972Z" fill="white"/>
</g>
<defs>
<clipPath id="clip0_689_1291">
<rect width="18" height="18" fill="white"/>
</clipPath>
</defs>
</svg>
