<svg width="20" height="20" viewBox="0 0 20 20" fill="none" xmlns="http://www.w3.org/2000/svg">
<path d="M6.09896 9.5H3.65104C3.29148 9.5 3 9.79148 3 10.151V16.349C3 16.7085 3.29148 17 3.65104 17H6.09896C6.45852 17 6.75 16.7085 6.75 16.349V10.151C6.75 9.79148 6.45852 9.5 6.09896 9.5Z" fill="white"/>
<path d="M11.724 2H9.27604C8.91648 2 8.625 2.29148 8.625 2.65104V16.349C8.625 16.7085 8.91648 17 9.27604 17H11.724C12.0835 17 12.375 16.7085 12.375 16.349V2.65104C12.375 2.29148 12.0835 2 11.724 2Z" fill="white"/>
<path d="M17.349 7H14.901C14.5415 7 14.25 7.29148 14.25 7.65104V16.349C14.25 16.7085 14.5415 17 14.901 17H17.349C17.7085 17 18 16.7085 18 16.349V7.65104C18 7.29148 17.7085 7 17.349 7Z" fill="white"/>
</svg>
