<svg width="20" height="20" viewBox="0 0 20 20" fill="none" xmlns="http://www.w3.org/2000/svg">
<path d="M12.7414 8.45455C13.4 8.45455 13.9345 8.98909 13.9345 9.64773V14.2493C13.9345 15.2441 13.5394 16.1981 12.836 16.9015C12.1326 17.6048 11.1786 18 10.1839 18C9.18912 18 8.23512 17.6048 7.53173 16.9015C6.82834 16.1981 6.43318 15.2441 6.43318 14.2493V9.64773C6.43318 8.98909 6.96705 8.45455 7.62636 8.45455H12.7414ZM3.19318 8.45455L6.18091 8.45318C5.93522 8.74924 5.7873 9.11415 5.7575 9.49773L5.75068 9.64773V14.2493C5.75068 15.0218 5.94909 15.7486 6.29614 16.3814C5.82903 16.5852 5.31853 16.6694 4.8107 16.6266C4.30288 16.5837 3.81372 16.415 3.3874 16.1358C2.96107 15.8566 2.611 15.4756 2.36878 15.0272C2.12656 14.5788 1.99982 14.0771 2 13.5675V9.64773C2.00036 9.33127 2.12628 9.02788 2.35011 8.80418C2.57395 8.58047 2.87672 8.45473 3.19318 8.45455ZM14.1875 8.45318L17.1705 8.45455C17.8291 8.45455 18.3636 8.98909 18.3636 9.64773V13.5682C18.3638 14.0776 18.2372 14.5791 17.9951 15.0273C17.7531 15.4756 17.4032 15.8565 16.9771 16.1357C16.551 16.4149 16.0621 16.5836 15.5545 16.6266C15.0469 16.6697 14.5365 16.5856 14.0695 16.382L14.1077 16.3125C14.4002 15.7582 14.5782 15.1336 14.6109 14.4716L14.6164 14.2493V9.64773C14.6164 9.19364 14.4555 8.77773 14.1875 8.45318ZM10.1818 3C10.4952 3 10.8055 3.06173 11.095 3.18165C11.3846 3.30158 11.6476 3.47736 11.8692 3.69895C12.0908 3.92054 12.2666 4.18361 12.3865 4.47314C12.5065 4.76267 12.5682 5.07298 12.5682 5.38636C12.5682 5.69975 12.5065 6.01006 12.3865 6.29959C12.2666 6.58911 12.0908 6.85218 11.8692 7.07378C11.6476 7.29537 11.3846 7.47115 11.095 7.59108C10.8055 7.711 10.4952 7.77273 10.1818 7.77273C9.54892 7.77273 8.94193 7.52131 8.4944 7.07378C8.04687 6.62625 7.79545 6.01927 7.79545 5.38636C7.79545 4.75346 8.04687 4.14648 8.4944 3.69895C8.94193 3.25142 9.54892 3 10.1818 3ZM15.6384 3.68182C15.907 3.68182 16.173 3.73473 16.4212 3.83752C16.6693 3.94031 16.8948 4.09098 17.0848 4.28092C17.2747 4.47086 17.4254 4.69635 17.5282 4.94451C17.631 5.19268 17.6839 5.45866 17.6839 5.72727C17.6839 5.99589 17.631 6.26187 17.5282 6.51003C17.4254 6.7582 17.2747 6.98369 17.0848 7.17363C16.8948 7.36357 16.6693 7.51423 16.4212 7.61703C16.173 7.71982 15.907 7.77273 15.6384 7.77273C15.0959 7.77273 14.5757 7.55722 14.1921 7.17363C13.8085 6.79003 13.593 6.26976 13.593 5.72727C13.593 5.18478 13.8085 4.66452 14.1921 4.28092C14.5757 3.89732 15.0959 3.68182 15.6384 3.68182ZM4.72523 3.68182C4.99384 3.68182 5.25982 3.73473 5.50799 3.83752C5.75616 3.94031 5.98164 4.09098 6.17158 4.28092C6.36152 4.47086 6.51219 4.69635 6.61498 4.94451C6.71777 5.19268 6.77068 5.45866 6.77068 5.72727C6.77068 5.99589 6.71777 6.26187 6.61498 6.51003C6.51219 6.7582 6.36152 6.98369 6.17158 7.17363C5.98164 7.36357 5.75616 7.51423 5.50799 7.61703C5.25982 7.71982 4.99384 7.77273 4.72523 7.77273C4.18274 7.77273 3.66247 7.55722 3.27887 7.17363C2.89528 6.79003 2.67977 6.26976 2.67977 5.72727C2.67977 5.18478 2.89528 4.66452 3.27887 4.28092C3.66247 3.89732 4.18274 3.68182 4.72523 3.68182Z" fill="white"/>
</svg>
