<svg width="20" height="20" viewBox="0 0 20 20" fill="none" xmlns="http://www.w3.org/2000/svg">
<path d="M6.41176 12.8235C6.85698 12.8234 7.28579 12.9915 7.61225 13.2943C7.9387 13.597 8.13867 14.0119 8.17206 14.4559L8.17647 14.5882V17.2353C8.17661 17.6805 8.00846 18.1093 7.70574 18.4358C7.40301 18.7622 6.98808 18.9622 6.54412 18.9956L6.41176 19H3.76471C3.31949 19.0001 2.89068 18.832 2.56422 18.5293C2.23777 18.2265 2.0378 17.8116 2.00441 17.3676L2 17.2353V14.5882C1.99986 14.143 2.16801 13.7142 2.47073 13.3878C2.77346 13.0613 3.18839 12.8613 3.63235 12.8279L3.76471 12.8235H6.41176ZM14.3529 16.3529C14.5778 16.3532 14.7941 16.4393 14.9577 16.5937C15.1212 16.7481 15.2196 16.9591 15.2328 17.1836C15.246 17.4081 15.1729 17.6292 15.0286 17.8016C14.8842 17.9741 14.6795 18.0849 14.4562 18.1115L14.3529 18.1176H10.8235C10.5986 18.1174 10.3823 18.0313 10.2188 17.8769C10.0553 17.7225 9.95685 17.5115 9.94367 17.287C9.93049 17.0625 10.0035 16.8414 10.1479 16.669C10.2922 16.4965 10.497 16.3857 10.7203 16.3591L10.8235 16.3529H14.3529ZM17.8824 12.8235C18.1164 12.8235 18.3408 12.9165 18.5063 13.082C18.6717 13.2474 18.7647 13.4719 18.7647 13.7059C18.7647 13.9399 18.6717 14.1643 18.5063 14.3298C18.3408 14.4953 18.1164 14.5882 17.8824 14.5882H10.8235C10.5895 14.5882 10.3651 14.4953 10.1996 14.3298C10.0341 14.1643 9.94118 13.9399 9.94118 13.7059C9.94118 13.4719 10.0341 13.2474 10.1996 13.082C10.3651 12.9165 10.5895 12.8235 10.8235 12.8235H17.8824ZM6.41176 4C6.87979 4 7.32865 4.18592 7.6596 4.51687C7.99055 4.84782 8.17647 5.29668 8.17647 5.76471V8.41176C8.17647 8.87979 7.99055 9.32865 7.6596 9.6596C7.32865 9.99055 6.87979 10.1765 6.41176 10.1765H3.76471C3.29668 10.1765 2.84782 9.99055 2.51687 9.6596C2.18592 9.32865 2 8.87979 2 8.41176V5.76471C2 5.29668 2.18592 4.84782 2.51687 4.51687C2.84782 4.18592 3.29668 4 3.76471 4H6.41176ZM14.3529 7.52941C14.5778 7.52966 14.7941 7.61578 14.9577 7.77016C15.1212 7.92454 15.2196 8.13555 15.2328 8.36005C15.246 8.58456 15.1729 8.80563 15.0286 8.97809C14.8842 9.15055 14.6795 9.26138 14.4562 9.28794L14.3529 9.29412H10.8235C10.5986 9.29387 10.3823 9.20775 10.2188 9.05337C10.0553 8.89898 9.95685 8.68798 9.94367 8.46348C9.93049 8.23897 10.0035 8.0179 10.1479 7.84544C10.2922 7.67298 10.497 7.56215 10.7203 7.53559L10.8235 7.52941H14.3529ZM17.8824 4C18.1072 4.00025 18.3236 4.08636 18.4871 4.24075C18.6506 4.39513 18.749 4.60614 18.7622 4.83064C18.7754 5.05515 18.7023 5.27622 18.558 5.44868C18.4137 5.62113 18.2089 5.73197 17.9856 5.75853L17.8824 5.76471H10.8235C10.5986 5.76446 10.3823 5.67834 10.2188 5.52396C10.0553 5.36957 9.95685 5.15857 9.94367 4.93406C9.93049 4.70956 10.0035 4.48849 10.1479 4.31603C10.2922 4.14357 10.497 4.03274 10.7203 4.00618L10.8235 4H17.8824Z" fill="white"/>
</svg>
