<svg width="20" height="20" viewBox="0 0 20 20" fill="none" xmlns="http://www.w3.org/2000/svg">
<path d="M7.16667 7.16732C7.27717 7.16732 7.38315 7.12342 7.46129 7.04528C7.53943 6.96714 7.58333 6.86116 7.58333 6.75065V4.25065C7.58333 4.14014 7.53943 4.03416 7.46129 3.95602C7.38315 3.87788 7.27717 3.83398 7.16667 3.83398C7.05616 3.83398 6.95018 3.87788 6.87204 3.95602C6.7939 4.03416 6.75 4.14014 6.75 4.25065V6.75065C6.75 6.86116 6.7939 6.96714 6.87204 7.04528C6.95018 7.12342 7.05616 7.16732 7.16667 7.16732Z" fill="white"/>
<path d="M15.5 8.62505C14.6712 8.62505 13.8764 8.29581 13.2903 7.70976C12.7043 7.12371 12.375 6.32885 12.375 5.50005H8.08336V6.75005C8.08336 6.99316 7.98678 7.22632 7.81487 7.39823C7.64297 7.57014 7.40981 7.66671 7.16669 7.66671C6.92358 7.66671 6.69042 7.57014 6.51851 7.39823C6.3466 7.22632 6.25003 6.99316 6.25003 6.75005V5.50005H4.58336C4.4842 5.49892 4.38583 5.51769 4.29405 5.55524C4.20227 5.59279 4.11896 5.64837 4.04903 5.71868C3.97911 5.789 3.92399 5.87262 3.88695 5.9646C3.8499 6.05659 3.83168 6.15507 3.83336 6.25421V15.5792C3.8317 15.6766 3.84925 15.7734 3.885 15.864C3.92075 15.9546 3.97401 16.0373 4.04172 16.1073C4.10943 16.1774 4.19028 16.2334 4.27964 16.2722C4.369 16.311 4.46512 16.3318 4.56253 16.3334H16.4375C16.5349 16.3318 16.6311 16.311 16.7204 16.2722C16.8098 16.2334 16.8906 16.1774 16.9583 16.1073C17.026 16.0373 17.0793 15.9546 17.115 15.864C17.1508 15.7734 17.1683 15.6766 17.1667 15.5792V8.14171C16.6684 8.45799 16.0902 8.62566 15.5 8.62505ZM7.16669 13.8334H6.33336V13H7.16669V13.8334ZM7.16669 11.75H6.33336V10.9167H7.16669V11.75ZM7.16669 9.66671H6.33336V8.83338H7.16669V9.66671ZM9.66669 13.8334H8.83336V13H9.66669V13.8334ZM9.66669 11.75H8.83336V10.9167H9.66669V11.75ZM9.66669 9.66671H8.83336V8.83338H9.66669V9.66671ZM12.1667 13.8334H11.3334V13H12.1667V13.8334ZM12.1667 11.75H11.3334V10.9167H12.1667V11.75ZM12.1667 9.66671H11.3334V8.83338H12.1667V9.66671ZM14.6667 13.8334H13.8334V13H14.6667V13.8334ZM14.6667 11.75H13.8334V10.9167H14.6667V11.75ZM14.6667 9.66671H13.8334V8.83338H14.6667V9.66671Z" fill="white"/>
<path d="M15.5 7.58268C16.6506 7.58268 17.5834 6.64994 17.5834 5.49935C17.5834 4.34876 16.6506 3.41602 15.5 3.41602C14.3494 3.41602 13.4167 4.34876 13.4167 5.49935C13.4167 6.64994 14.3494 7.58268 15.5 7.58268Z" fill="white"/>
</svg>
