<svg width="20" height="20" viewBox="0 0 20 20" fill="none" xmlns="http://www.w3.org/2000/svg">
<path d="M10.1023 0C4.52294 0 0 4.47715 0 10C0 15.5228 4.52294 20 10.1023 20C13.2748 20 16.1062 18.5512 17.9566 16.2895C18.2017 15.9899 18.251 15.5776 18.0835 15.2297C17.9159 14.8818 17.5612 14.6602 17.1718 14.6601C12.7093 14.659 9.09204 11.0777 9.09204 6.66011C9.09204 4.75287 9.76501 3.00394 10.8896 1.62935C11.1347 1.32982 11.184 0.917535 11.0164 0.569618C10.8488 0.221702 10.4942 9.4533e-05 10.1048 0H10.1023Z" fill="#090F15"/>
<path d="M12.841 4.74676C13.4058 4.74676 13.8637 4.29453 13.8637 3.73666C13.8637 3.1788 13.4058 2.72656 12.841 2.72656C12.2761 2.72656 11.8182 3.1788 11.8182 3.73666C11.8182 4.29453 12.2761 4.74676 12.841 4.74676Z" fill="#090F15"/>
<path d="M17.9546 10.8074C17.9546 11.3652 17.4967 11.8175 16.9319 11.8175C16.367 11.8175 15.9091 11.3652 15.9091 10.8074V9.79727H14.8864C14.3216 9.79727 13.8637 9.34503 13.8637 8.78717C13.8637 8.2293 14.3216 7.77707 14.8864 7.77707H15.9091V6.76697C15.9091 6.2091 16.367 5.75687 16.9319 5.75687C17.4967 5.75687 17.9546 6.2091 17.9546 6.76697V7.77707H18.9773C19.5422 7.77707 20.0001 8.2293 20.0001 8.78717C20.0001 9.34503 19.5422 9.79727 18.9773 9.79727H17.9546V10.8074Z" fill="#090F15"/>
</svg>
