<svg width="313" height="314" viewBox="0 0 313 314" fill="none" xmlns="http://www.w3.org/2000/svg">
<g filter="url(#filter0_d_750_3924)">
<circle cx="156" cy="153" r="152" fill="#249FFF"/>
<path d="M77.9503 281.047C156.615 227.303 222.456 215.262 279.507 238.897C278.744 240.007 277.643 241.553 276.201 243.435C273.101 247.483 268.428 253.079 262.16 259.242C249.621 271.572 230.737 286.13 205.334 295.106C148.344 315.243 98.0768 295.222 77.9503 281.047Z" fill="#249FFF" stroke="white" stroke-width="4"/>
<path d="M142.355 0.2297C141.417 0.346918 137.666 0.874398 134.033 1.40188C112.289 4.33232 89.7242 13.1823 70.8522 26.1348C61.592 32.4646 56.6102 36.6258 47.9947 45.2413C13.5327 79.7619 -2.05726 129.228 6.14798 177.932C8.43372 191.588 12.6536 204.892 18.9247 218.196L22.2068 225.171L22.6171 219.075C24.2581 194.87 28.2435 170.195 33.6355 151.206C40.2583 127.763 49.8116 108.011 60.4784 95.5863C64.5224 90.8976 64.6396 91.2493 58.6029 90.1943C53.0351 89.198 47.1156 89.4324 42.6613 90.7804C39.3792 91.7768 38.1484 92.5973 35.218 95.5277C31.8187 98.8684 31.7014 98.927 32.1117 97.1688C33.1667 91.8354 37.0349 87.7913 44.3024 84.2162C46.9398 82.9854 49.4599 81.9305 49.8702 81.9305C51.9215 81.9305 49.753 79.5861 46.2364 78.0037C44.4782 77.2418 42.251 77.0073 37.3279 77.0073C31.0567 76.9487 30.8223 76.8901 31.7601 75.8937C32.2875 75.3077 34.5733 73.901 36.859 72.7875C44.1851 69.1537 53.0351 69.564 61.7678 73.8424C63.8777 74.8974 65.8118 75.8351 66.1049 75.9524C67.0426 76.4212 65.9876 70.4431 64.7569 67.9816C64.1122 66.6922 62.1781 64.4064 60.4784 62.8826L57.3721 60.0694L60.3026 60.4796C69.2697 61.8276 76.0098 68.9779 77.3578 78.5898C77.5336 79.9378 77.768 81.6374 77.9438 82.2821L78.1783 83.5715L81.812 82.3993C87.2627 80.6997 93.5338 81.1099 97.3434 83.4543C99.805 84.9781 103.966 89.9599 103.966 91.3665C103.966 91.6595 102.97 91.3665 101.798 90.7218C99.2189 89.3738 94.5302 89.198 89.9587 90.2529L86.9696 90.9562L89.0209 92.6559C93.0063 95.938 95.1749 102.326 95.1749 110.532L95.1162 115.044L92.7719 110.532C90.0173 105.374 85.4458 100.216 81.8706 98.4582L79.4677 97.2274L80.6399 100.216C82.1637 104.26 82.5739 109.77 81.6948 113.638C80.8157 117.565 78.0611 122.898 75.8339 125.008L74.1343 126.649L75.0134 123.777C76.3028 119.499 76.6545 113.11 75.8925 108.597C75.1306 104.495 72.6104 98.1651 70.6763 95.7035L69.5042 94.2383L67.3356 96.6413C60.0681 104.729 53.1523 119.733 48.698 137.316C44.4196 153.902 42.251 170.606 41.1961 195.163C40.5514 209.815 40.9616 233.727 41.8408 233.727C42.0752 233.727 45.2401 232.966 48.9325 231.969C62.94 228.335 76.5958 226.636 92.5375 226.577C101.739 226.577 102.911 226.46 101.915 225.757C94.9404 220.775 92.6547 212.98 96.054 205.712L97.4606 202.665L109.944 202.782L122.369 202.958L123.717 205.302C127.761 212.57 124.597 222.416 116.977 226.225L114.164 227.632L120.904 228.628C129.402 229.859 140.245 232.497 149.505 235.603L156.714 237.947L163.864 235.603C173.359 232.438 183.674 229.976 193.521 228.453C201.609 227.222 219.895 226.05 222.649 226.577C223.939 226.812 223.704 226.343 220.774 223.412C216.964 219.603 215.909 217.083 215.909 211.984C215.909 204.071 223.177 196.804 230.972 196.804C241.58 196.804 249.375 207.353 246.151 217.2C244.979 220.716 241.345 225.053 238.649 226.167C236.832 226.929 237.126 226.987 245.8 228.277C256.115 229.801 269.009 232.848 277.331 235.779L283.016 237.771L284.188 236.365C284.833 235.603 287.178 231.735 289.405 227.867C298.255 212.394 304.702 193.932 307.691 175.412C309.156 166.269 309.449 143.821 308.277 134.034C303.94 99.5717 289.053 69.0365 264.554 44.3622C241.873 21.5633 212.51 6.61807 179.865 1.28466C174.297 0.405527 146.809 -0.414997 142.355 0.2297ZM215.733 115.689C215.909 116.217 215.792 117.154 215.382 117.799C214.854 118.678 214.854 119.147 215.323 119.733C215.792 120.261 215.851 121.433 215.616 122.957C215.206 125.301 215.206 125.301 212.51 125.301C209.052 125.301 209.697 125.887 213.682 126.415C217.14 126.825 217.843 127.88 216.261 130.283C215.499 131.455 214.796 131.748 212.686 131.748C211.22 131.748 210.048 131.982 210.048 132.217C210.048 132.451 219.191 133.506 230.444 134.561C241.638 135.616 251.778 136.73 252.95 137.081C255.353 137.726 256.935 139.484 256.935 141.536C256.935 143.001 270.474 163.338 273.053 165.741C275.983 168.437 276.276 169.785 276.921 181.741C277.214 187.954 277.273 194.753 277.097 196.921C276.745 200.613 276.804 200.906 277.859 200.906C279.265 200.906 281.258 203.016 281.727 204.95C282.196 206.767 280.848 209.991 279.324 210.811C278.621 211.163 276.804 211.456 275.163 211.456C273.58 211.456 272.056 211.69 271.881 212.042C271.353 212.863 253.302 212.804 251.426 211.984C250.019 211.339 248.085 207.998 246.386 203.192C245.214 199.969 242.752 196.687 240.525 195.339C238.767 194.342 237.477 194.166 230.854 194.166C224.876 194.166 222.825 194.401 221.418 195.163C218.371 196.804 215.44 201.903 214.151 207.705C213.799 209.288 213.213 210.87 212.861 211.28C212.393 211.866 204.48 212.042 173.769 212.042H135.263L133.739 210.401C132.919 209.522 131.688 207.705 130.985 206.357C128.523 201.434 128.758 201.493 110.765 201.493C92.6547 201.493 93.2408 201.375 90.7206 206.357C89.8414 208.057 88.8451 209.581 88.4934 209.815C88.1418 210.049 86.0905 210.284 83.9806 210.284C80.8743 210.284 79.9365 210.518 79.0574 211.456C78.1197 212.511 77.2405 212.628 71.3797 212.628C65.2257 212.628 64.6982 212.57 63.8777 211.339C63.3502 210.636 62.94 209.581 62.94 209.053C62.94 207.646 65.2257 205.009 66.3979 205.009C67.3356 205.009 67.5115 203.368 68.3906 187.544C70.3833 153.726 74.6031 140.129 84.8597 134.796C87.4971 133.448 88.6693 133.213 95.0576 133.037L102.208 132.803V129.697V126.59L98.9844 125.008C95.4093 123.308 94.2371 121.902 93.651 118.854L93.2408 116.861L95.4093 118.151C100.45 121.14 104.142 121.843 116.86 122.429C123.483 122.664 132.978 122.957 138.018 122.957H147.22L151.498 119.557C155.835 116.217 155.835 116.217 160.817 115.806C168.436 115.22 191.059 115.279 195.689 115.924C205.301 117.272 206.708 117.272 209.462 116.041C212.744 114.517 215.206 114.4 215.733 115.689Z" fill="white"/>
<path d="M103.966 130.048V133.096L112.874 132.744C117.739 132.51 127.234 132.334 133.974 132.334H146.164V130.576C146.164 129.169 145.871 128.759 144.64 128.466C143.761 128.231 136.025 128.231 127.468 128.466C112.874 128.876 109.651 128.7 105.021 127.293C104.083 127 103.966 127.411 103.966 130.048Z" fill="white"/>
<path d="M179.865 130.634C169.55 130.81 158.59 131.044 155.542 131.103C152.377 131.103 150.267 131.396 150.56 131.689C150.912 131.982 163.982 132.334 179.748 132.568C202.781 132.861 208.29 132.803 208.29 132.216C208.29 130.927 205.301 129.989 201.902 130.107C200.085 130.165 190.18 130.4 179.865 130.634Z" fill="white"/>
<path d="M108.186 145.812C95.4677 146.105 95.0574 146.164 94.0025 147.453C92.7717 148.918 91.9512 152.493 91.3651 158.53C90.9548 162.516 91.0134 162.75 92.3028 163.395C94.2369 164.45 143.761 164.274 144.816 163.219C145.227 162.809 145.696 159.468 145.93 154.662C146.34 147.453 146.282 146.75 145.285 146.047C144.113 145.167 135.791 145.109 108.186 145.812Z" fill="white"/>
<path d="M83.5705 146.81C81.988 148.158 80.1125 153.961 79.5851 159.001L79.1748 162.986L82.6327 162.517C84.5082 162.283 86.1493 162.049 86.2079 162.049C86.2665 161.99 86.6181 159.704 86.9698 156.95C87.3214 154.195 88.142 150.561 88.6694 148.862L89.7244 145.814H87.2628C85.739 145.814 84.2738 146.224 83.5705 146.81Z" fill="white"/>
<path d="M152.905 146.811C152.026 147.691 151.967 148.746 152.319 156.013C152.612 161.053 153.022 164.453 153.432 164.687C154.194 165.215 191.645 165.156 199.499 164.629L205.067 164.277L205.243 155.837C205.36 150.152 205.184 147.163 204.715 146.636C204.188 145.932 199.616 145.815 178.927 145.815C156.246 145.815 153.784 145.932 152.905 146.811Z" fill="white"/>
<path d="M214.972 147.278C214.268 148.392 214.151 150.092 214.327 156.07C214.503 160.172 214.854 163.748 215.206 164.099C216.202 165.096 224.056 165.682 236.54 165.682C248.203 165.74 249.727 165.447 247.851 163.572C247.382 163.103 247.265 162.048 247.617 160.055C247.851 158.531 248.086 156.773 248.086 156.246C248.144 155.718 248.73 155.073 249.434 154.839C252.423 153.901 253.947 159.528 251.719 163.22C251.075 164.216 250.723 165.213 250.899 165.389C251.133 165.564 252.54 165.74 254.064 165.74C256.408 165.74 257.053 165.506 257.815 164.334C258.694 163.044 258.577 162.517 255.998 155.425C254.474 151.264 252.95 147.571 252.599 147.22C252.188 146.751 246.21 146.458 233.902 146.223L215.851 145.93L214.972 147.278Z" fill="white"/>
<path d="M107.775 205.068C101.152 207.003 100.391 216.79 106.603 219.428C109.358 220.541 111.526 220.483 113.753 219.076C116.274 217.552 117.504 215.501 117.563 212.805C117.622 207.296 112.874 203.545 107.775 205.068Z" fill="white"/>
<path d="M229.155 205.01C224.407 206.475 222.239 211.692 224.583 216.087C226.635 219.897 231.499 221.304 235.074 219.076C237.712 217.494 238.942 215.325 238.942 212.336C238.942 207.12 234.137 203.545 229.155 205.01Z" fill="white"/>
</g>
<defs>
<filter id="filter0_d_750_3924" x="0" y="-0.00195312" width="313" height="313.633" filterUnits="userSpaceOnUse" color-interpolation-filters="sRGB">
<feFlood flood-opacity="0" result="BackgroundImageFix"/>
<feColorMatrix in="SourceAlpha" type="matrix" values="0 0 0 0 0 0 0 0 0 0 0 0 0 0 0 0 0 0 127 0" result="hardAlpha"/>
<feOffset dy="4"/>
<feGaussianBlur stdDeviation="2"/>
<feComposite in2="hardAlpha" operator="out"/>
<feColorMatrix type="matrix" values="0 0 0 0 0 0 0 0 0 0 0 0 0 0 0 0 0 0 0.25 0"/>
<feBlend mode="normal" in2="BackgroundImageFix" result="effect1_dropShadow_750_3924"/>
<feBlend mode="normal" in="SourceGraphic" in2="effect1_dropShadow_750_3924" result="shape"/>
</filter>
</defs>
</svg>
