<svg width="41" height="40" viewBox="0 0 41 40" fill="none" xmlns="http://www.w3.org/2000/svg">
<path d="M20.9276 18.146V18.646L21.4276 18.646C22.0913 18.646 22.7387 18.8518 23.2807 19.235C23.8226 19.6181 24.2324 20.1598 24.4537 20.7855C24.4724 20.8384 24.4805 20.8945 24.4775 20.9505C24.4745 21.0066 24.4605 21.0615 24.4363 21.1121C24.4121 21.1627 24.3782 21.2081 24.3365 21.2456C24.2947 21.2831 24.246 21.3121 24.1931 21.3307C24.1402 21.3494 24.0841 21.3575 24.0281 21.3545C23.972 21.3515 23.9171 21.3375 23.8665 21.3133C23.7642 21.2645 23.6856 21.177 23.6479 21.0701L23.6478 21.0698C23.4854 20.6108 23.1847 20.2134 22.787 19.9323C22.3894 19.6513 21.9144 19.5004 21.4275 19.5005L20.9276 19.5007V20.0005V23.7096V24.2096H21.4276C22.2787 24.2096 23.0949 24.5477 23.6967 25.1495C24.2985 25.7513 24.6366 26.5675 24.6366 27.4186C24.6366 28.2697 24.2985 29.086 23.6967 29.6878C23.0949 30.2896 22.2787 30.6277 21.4276 30.6277H20.9276V31.1277V31.5549H20.0731V31.1277V30.6277L19.5731 30.6277C18.9093 30.6277 18.2619 30.4219 17.7199 30.0387C17.178 29.6555 16.7681 29.1137 16.5468 28.488L16.547 28.4879L16.542 28.4748C16.5214 28.4215 16.5117 28.3646 16.5136 28.3075C16.5154 28.2504 16.5286 28.1943 16.5525 28.1424C16.5764 28.0905 16.6105 28.0439 16.6527 28.0054L16.3167 27.637L16.6527 28.0054C16.6949 27.9669 16.7444 27.9373 16.7983 27.9182C16.8521 27.8992 16.9093 27.8912 16.9663 27.8946C17.0233 27.898 17.0791 27.9129 17.1303 27.9382C17.1815 27.9636 17.2271 27.999 17.2643 28.0422C17.3016 28.0855 17.3298 28.1359 17.3473 28.1902L17.3496 28.1973L17.3521 28.2043C17.6766 29.119 18.5481 29.7732 19.5731 29.7732H20.0731V29.2732V25.5641V25.0641H19.5731C18.722 25.0641 17.9057 24.726 17.3039 24.1242C16.7021 23.5224 16.364 22.7062 16.364 21.8551C16.364 21.004 16.7021 20.1877 17.3039 19.5859C17.9057 18.9841 18.722 18.646 19.5731 18.646H20.0731V18.146V17.7188H20.9276V18.146ZM20.0731 20.0005V19.5005H19.5731C18.9486 19.5005 18.3497 19.7486 17.9082 20.1902C17.4666 20.6317 17.2185 21.2306 17.2185 21.8551C17.2185 22.4795 17.4666 23.0784 17.9082 23.52C18.3497 23.9615 18.9486 24.2096 19.5731 24.2096H20.0731V23.7096V20.0005ZM20.9276 29.2732V29.7732H21.4276C22.052 29.7732 22.6509 29.5251 23.0925 29.0835C23.534 28.642 23.7821 28.0431 23.7821 27.4186C23.7821 26.7942 23.534 26.1953 23.0925 25.7537C22.6509 25.3122 22.052 25.0641 21.4276 25.0641H20.9276V25.5641V29.2732Z" fill="#FAFAFA" stroke="#FAFAFA"/>
<path d="M13.2057 12.5778L13.5219 12.7C17.8707 14.3799 23.1083 14.3799 27.457 12.6982L27.7695 12.5773L28.0001 12.8204C29.8981 14.8212 31.4858 17.0949 32.7105 19.5659L32.7115 19.5679C33.9873 22.1704 34.7037 24.8135 34.5867 27.1302L34.5867 27.1302C34.4723 29.3913 33.5716 31.3573 31.5218 32.8061L31.5218 32.8061C29.4129 34.2962 25.9467 35.3337 20.5354 35.3337C15.1198 35.3337 11.6397 34.3142 9.51316 32.8423L9.51293 32.8421C7.44943 31.4121 6.53763 29.4721 6.41014 27.2375L13.2057 12.5778ZM13.2057 12.5778L12.9752 12.8263M13.2057 12.5778L12.9752 12.8263M12.9752 12.8263C11.1573 14.7857 9.46566 17.1898 8.25095 19.693L8.25091 19.6931M12.9752 12.8263L8.25091 19.6931M8.25091 19.6931C6.98037 22.3124 6.2784 24.9433 6.41013 27.2373L8.25091 19.6931ZM30.3428 6.18148C30.7832 6.39933 31.1642 6.60771 31.4775 6.7944L28.3457 11.3726L28.1141 11.7113L28.401 12.0046C30.3394 13.9862 32.1697 16.5165 33.4805 19.192C34.7935 21.8722 35.5679 24.6626 35.441 27.1736C35.3151 29.6638 34.3054 31.8864 32.0163 33.5036C29.7051 35.1364 26.0382 36.1882 20.5364 36.1882C15.0332 36.1882 11.3544 35.1552 9.02802 33.5442C6.72448 31.949 5.6991 29.7544 5.55803 27.2858C5.41571 24.7952 6.17576 22.0154 7.48354 19.3202C8.7889 16.63 10.6229 14.0599 12.5812 11.9994L12.8589 11.7072L12.6323 11.3739L9.52247 6.79803C9.67984 6.70534 9.8536 6.60759 10.043 6.50668L10.043 6.50669L10.0447 6.50576C10.2353 6.40328 10.4408 6.2978 10.6614 6.19025L10.8573 6.09471C13.1034 5.02413 16.6645 3.80957 20.5364 3.80957C24.4384 3.80957 27.9975 5.04295 30.2165 6.12017C30.2165 6.12017 30.2165 6.12017 30.2165 6.12018L30.3412 6.18069C30.3417 6.18095 30.3422 6.18122 30.3428 6.18148ZM26.7245 12.0593L26.8779 12.0048L26.9698 11.8705L29.7117 7.8619L30.2968 7.00647L29.2631 7.0809C26.6696 7.26763 23.6003 7.87491 20.6554 8.72753C18.6714 9.30068 16.4387 9.21941 14.3339 8.83118C13.8046 8.73306 13.279 8.61625 12.758 8.48099L11.4726 8.14724L12.2188 9.24586L13.9991 11.8672L14.091 12.0025L14.245 12.0573C18.1692 13.4544 22.7996 13.4544 26.7245 12.0593ZM12.08 6.48047L10.8004 7.02359L12.1328 7.41997C12.8897 7.64513 13.6821 7.84144 14.4877 7.99058L14.4881 7.99067C16.523 8.36547 18.6079 8.42991 20.4168 7.90594L20.4175 7.90573C22.3859 7.33228 24.388 6.88129 26.4122 6.55532L26.4768 5.58291C24.7353 5.05857 22.6905 4.66409 20.5354 4.66409C17.2536 4.66409 14.2063 5.57799 12.08 6.48047Z" fill="#FAFAFA" stroke="#FAFAFA"/>
</svg>
