<svg width="40" height="40" viewBox="0 0 40 40" fill="none" xmlns="http://www.w3.org/2000/svg">
<path d="M11.6667 11.6662V8.3329C11.6668 7.3677 11.9462 6.42313 12.4712 5.61322C12.9962 4.8033 13.7444 4.16267 14.6256 3.76863C15.5067 3.3746 16.483 3.24402 17.4367 3.39265C18.3904 3.54128 19.2807 3.96276 20.0001 4.60623C20.7195 3.96276 21.6098 3.54128 22.5635 3.39265C23.5172 3.24402 24.4935 3.3746 25.3746 3.76863C26.2557 4.16267 27.0039 4.8033 27.529 5.61322C28.054 6.42313 28.3334 7.3677 28.3334 8.3329V11.6662H30.8334C31.4965 11.6662 32.1323 11.9296 32.6012 12.3985C33.07 12.8673 33.3334 13.5032 33.3334 14.1662V30.8412C33.3334 32.3861 32.7197 33.8677 31.6273 34.9601C30.5349 36.0525 29.0533 36.6662 27.5084 36.6662H13.3334C11.5653 36.6662 9.86961 35.9639 8.61937 34.7136C7.36913 33.4634 6.66675 31.7677 6.66675 29.9996V14.1662C6.66675 13.5032 6.93014 12.8673 7.39898 12.3985C7.86782 11.9296 8.50371 11.6662 9.16675 11.6662H11.6667ZM22.7251 34.1662C22.0452 33.1909 21.6815 32.0301 21.6834 30.8412V14.1662H9.16675V29.9996C9.16675 30.5467 9.27452 31.0886 9.48392 31.5941C9.69331 32.0996 10.0002 32.5589 10.3871 32.9458C10.774 33.3328 11.2334 33.6397 11.7389 33.8491C12.2444 34.0585 12.7862 34.1662 13.3334 34.1662H22.7251ZM19.1667 11.6662V8.3329C19.1667 7.66986 18.9034 7.03397 18.4345 6.56513C17.9657 6.09629 17.3298 5.8329 16.6667 5.8329C16.0037 5.8329 15.3678 6.09629 14.899 6.56513C14.4301 7.03397 14.1667 7.66986 14.1667 8.3329V11.6662H19.1667ZM21.6667 11.6662H25.8334V8.3329C25.8335 7.81829 25.6747 7.3162 25.3788 6.89517C25.0829 6.47414 24.6643 6.15468 24.1801 5.9804C23.6959 5.80611 23.1697 5.7855 22.6734 5.92137C22.177 6.05724 21.7347 6.34297 21.4067 6.73957C21.5751 7.23957 21.6667 7.77623 21.6667 8.3329V11.6662ZM24.1834 30.8412C24.1834 31.7231 24.5337 32.5688 25.1573 33.1924C25.7808 33.8159 26.6266 34.1662 27.5084 34.1662C28.3903 34.1662 29.236 33.8159 29.8595 33.1924C30.4831 32.5688 30.8334 31.7231 30.8334 30.8412V14.1662H24.1834V30.8412Z" fill="white"/>
</svg>
