<svg width="40" height="40" viewBox="0 0 40 40" fill="none" xmlns="http://www.w3.org/2000/svg">
<path d="M20 37.273C29.5395 37.273 37.2728 29.5397 37.2728 20.0003C37.2728 10.4608 29.5395 2.72754 20 2.72754C10.4606 2.72754 2.72729 10.4608 2.72729 20.0003C2.72729 29.5397 10.4606 37.273 20 37.273Z" stroke="black" stroke-width="2" stroke-linecap="round" stroke-linejoin="round"/>
<path d="M25.0909 14.5473C24.7615 13.9761 24.283 13.5052 23.7065 13.185C23.13 12.8648 22.4772 12.7074 21.8181 12.7296H18.1818C17.2174 12.7296 16.2924 13.1126 15.6105 13.7944C14.9285 14.4761 14.5454 15.4008 14.5454 16.3649C14.5454 17.3291 14.9285 18.2537 15.6105 18.9355C16.2924 19.6173 17.2174 20.0003 18.1818 20.0003H21.8181C22.7826 20.0003 23.7075 20.3833 24.3894 21.065C25.0714 21.7468 25.4545 22.6714 25.4545 23.6356C25.4545 24.5998 25.0714 25.5244 24.3894 26.2062C23.7075 26.8879 22.7826 27.2709 21.8181 27.2709H18.1818C17.5227 27.2931 16.8699 27.1357 16.2934 26.8155C15.717 26.4953 15.2384 26.0244 14.909 25.4533" stroke="black" stroke-width="2.75" stroke-linecap="round" stroke-linejoin="round"/>
<path d="M20 8.18164V12.121M20 27.8786V31.818" stroke="black" stroke-width="2.75" stroke-linecap="round" stroke-linejoin="round"/>
</svg>
