<svg width="36" height="36" viewBox="0 0 36 36" fill="none" xmlns="http://www.w3.org/2000/svg">
<circle opacity="0.1" cx="18" cy="18" r="18" fill="#DF6F79"/>
<path fill-rule="evenodd" clip-rule="evenodd" d="M23.4905 13.7423C23.7356 13.7423 23.9396 13.9458 23.9396 14.2047V14.4441C23.9396 14.6967 23.7356 14.9065 23.4905 14.9065H13.0493C12.8036 14.9065 12.5996 14.6967 12.5996 14.4441V14.2047C12.5996 13.9458 12.8036 13.7423 13.0493 13.7423H14.8862C15.2594 13.7423 15.5841 13.4771 15.6681 13.1028L15.7642 12.6732C15.9137 12.0879 16.4058 11.6992 16.9688 11.6992H19.5704C20.1273 11.6992 20.6249 12.0879 20.7688 12.6423L20.8718 13.1022C20.9551 13.4771 21.2798 13.7423 21.6536 13.7423H23.4905ZM22.5573 22.4936C22.7491 20.7063 23.0849 16.4601 23.0849 16.4173C23.0971 16.2875 23.0548 16.1647 22.9709 16.0658C22.8808 15.9732 22.7669 15.9183 22.6412 15.9183H13.9028C13.7766 15.9183 13.6565 15.9732 13.5732 16.0658C13.4886 16.1647 13.447 16.2875 13.4531 16.4173C13.4542 16.4252 13.4663 16.5747 13.4864 16.8248C13.5759 17.9356 13.8251 21.0296 13.9861 22.4936C14.1001 23.5721 14.8078 24.25 15.8328 24.2746C16.6238 24.2928 17.4387 24.2991 18.272 24.2991C19.0569 24.2991 19.854 24.2928 20.6696 24.2746C21.7302 24.2563 22.4372 23.5904 22.5573 22.4936Z" fill="#D11A2A"/>
</svg>
