<svg width="36" height="36" viewBox="0 0 36 36" fill="none" xmlns="http://www.w3.org/2000/svg">
<circle opacity="0.1" cx="18" cy="18" r="18" fill="#233A85"/>
<path fill-rule="evenodd" clip-rule="evenodd" d="M16.1635 23.6188L22.314 15.665C22.6482 15.2361 22.7671 14.7402 22.6557 14.2353C22.5591 13.7763 22.2768 13.3399 21.8534 13.0088L20.8209 12.1886C19.9221 11.4737 18.8079 11.549 18.1691 12.3692L17.4783 13.2654C17.3891 13.3775 17.4114 13.543 17.5228 13.6333C17.5228 13.6333 19.2684 15.0329 19.3056 15.063C19.4244 15.1759 19.5136 15.3264 19.5358 15.507C19.573 15.8607 19.3279 16.1918 18.9639 16.2369C18.793 16.2595 18.6296 16.2068 18.5108 16.109L16.676 14.6492C16.5869 14.5822 16.4532 14.5965 16.3789 14.6868L12.0186 20.3304C11.7363 20.6841 11.6398 21.1431 11.7363 21.5871L12.2934 24.0025C12.3232 24.1304 12.4346 24.2207 12.5683 24.2207L15.0196 24.1906C15.4652 24.1831 15.8812 23.9799 16.1635 23.6188ZM19.5955 22.8666H23.5926C23.9826 22.8666 24.2998 23.1879 24.2998 23.5829C24.2998 23.9787 23.9826 24.2993 23.5926 24.2993H19.5955C19.2056 24.2993 18.8884 23.9787 18.8884 23.5829C18.8884 23.1879 19.2056 22.8666 19.5955 22.8666Z" fill="#233A85"/>
</svg>
